/* XPM */
static char *af85532c45a74f09b57e76c9c6158330gM3y0tC6kYDxUEvN[] = {
/* columns rows colors chars-per-pixel */
"25 49 209 2 ",
"   c #1E1E27",
".  c #1E202D",
"X  c #21212B",
"o  c #2A292F",
"O  c #25293C",
"+  c #272834",
"@  c #343439",
"#  c #463F2F",
"$  c #463E34",
"%  c #524939",
"&  c #7C5F3F",
"*  c #614A30",
"=  c #353A4B",
"-  c #393E4E",
";  c #353744",
":  c #303448",
">  c #3E414C",
",  c #3D4256",
"<  c #26445F",
"1  c #2B4861",
"2  c #324E66",
"3  c #38516A",
"4  c #375C7A",
"5  c #454447",
"6  c #585247",
"7  c #464B5A",
"8  c #4E515C",
"9  c #52535B",
"0  c #665947",
"q  c #6C5D49",
"w  c #5D645F",
"e  c #7A6D56",
"r  c #736856",
"t  c #444C64",
"y  c #484F68",
"u  c #4C5466",
"i  c #565C63",
"p  c #5B6876",
"a  c #5E6368",
"s  c #69717D",
"d  c #787779",
"f  c #6E6D6A",
"g  c #805837",
"h  c #986C3C",
"j  c #82653C",
"k  c #A56A35",
"l  c #A5763B",
"z  c #B17D36",
"x  c #B87535",
"c  c #A3632F",
"v  c #CC7534",
"b  c #866843",
"n  c #89714D",
"m  c #937346",
"M  c #8C7459",
"N  c #827559",
"B  c #997C56",
"V  c #A97C4D",
"C  c #857968",
"Z  c #817E77",
"A  c #768179",
"S  c #A48D3A",
"D  c #C6853A",
"F  c #D9923F",
"G  c #D98A3C",
"H  c #EB873B",
"J  c #F18E3F",
"K  c #9C835C",
"L  c #988B68",
"P  c #9E926E",
"I  c #8A8475",
"U  c #958B79",
"Y  c #9B9477",
"T  c #8A8062",
"R  c #A48762",
"E  c #A49169",
"W  c #AA996F",
"Q  c #B8996B",
"!  c #AB9D75",
"~  c #AD9E7B",
"^  c #A59773",
"/  c #B58D66",
"(  c #B2A379",
")  c #A9A279",
"_  c #C98A41",
"`  c #CB9140",
"'  c #D89441",
"]  c #E79541",
"[  c #E79B42",
"{  c #F69B43",
"}  c #FA9C44",
"|  c #EAA244",
" . c #F3A546",
".. c #FDA648",
"X. c #FFAC4A",
"o. c #F8A847",
"O. c #FEB24B",
"+. c #FFBC4B",
"@. c #C19E6F",
"#. c #D1AB78",
"$. c #EBA877",
"%. c #D3B84F",
"&. c #FFCC4B",
"*. c #FAC749",
"=. c #FFD34A",
"-. c #FFDE4A",
";. c #EDD447",
":. c #FFE44B",
">. c #ECE046",
",. c #2D648C",
"<. c #39668C",
"1. c #37719D",
"2. c #336F9B",
"3. c #3979A9",
"4. c #5B7488",
"5. c #507795",
"6. c #727C84",
"7. c #687B8A",
"8. c #4A7EA4",
"9. c #3E81B2",
"0. c #3F87BC",
"q. c #7F8A92",
"w. c #4586B6",
"e. c #3F91CD",
"r. c #3E8BC1",
"t. c #4892CB",
"y. c #459AD7",
"u. c #4799D5",
"i. c #428BC1",
"p. c #48A0DF",
"a. c #449FE0",
"s. c #49A5E5",
"d. c #49A6E8",
"f. c #4AAAEC",
"g. c #43A0E2",
"h. c #8E8C8A",
"j. c #999387",
"k. c #939394",
"l. c #9B9A9B",
"z. c #958B80",
"x. c #A39D9A",
"c. c #A49D95",
"v. c #A7A28A",
"b. c #B7AA83",
"n. c #B3A89C",
"m. c #BDB093",
"M. c #B2A98F",
"N. c #9D9DA2",
"B. c #9FA2A6",
"V. c #9BA6B1",
"C. c #A3A3A5",
"Z. c #A9A7A6",
"A. c #ABA8A6",
"S. c #ABAAAC",
"D. c #A6A8AE",
"F. c #B5B4B4",
"G. c #BCBAB9",
"H. c #B3B0AB",
"J. c #C0AF81",
"K. c #C4B485",
"L. c #CCBB8A",
"P. c #C8B685",
"I. c #D1BF8F",
"U. c #D8B783",
"Y. c #D0BF90",
"T. c #F2B883",
"R. c #C3BFBA",
"E. c #CFC08E",
"W. c #CEC294",
"Q. c #D5C391",
"!. c #DDCB95",
"~. c #D9C591",
"^. c #E1CC96",
"/. c #EACE95",
"(. c #F8C891",
"). c #E6D39B",
"_. c #EBD59D",
"`. c #EED99E",
"'. c #F7DA9E",
"]. c #C2C1BD",
"[. c #EDDBA2",
"{. c #F4DDA3",
"}. c #FBDFA4",
"|. c #FEE1A6",
" X c #FFE5A9",
".X c #FFE9AC",
"XX c #F7E1A7",
"oX c #BEBFC2",
"OX c #BFC0C4",
"+X c #C3C2C3",
"@X c #CBCBCB",
"#X c #CBC8C1",
"$X c #D0CECC",
"%X c #D1D0CD",
"&X c #CECFD2",
"*X c #CFD1D4",
"=X c #D4D4D4",
"-X c #D9D8D7",
";X c #DADADB",
":X c #D6D8DC",
">X c #E0E0DF",
",X c #E6E6E6",
"<X c #E8E7E6",
"1X c #E7E8E9",
"2X c #EBEBEB",
"3X c #EEEFF0",
"4X c #F5F5F5",
"5X c #FDFDFD",
"6X c #F7F8FA",
/* pixels */
",X,X,X3X5X5X5X5X5X5X4X,X,X,X<X<X<X6X5X5X5X5X5X5X2X",
",X,X,X3X5X5X5X5X5X5X4X2X2X2X<X<X-X4X5X5X5X@XC.5X2X",
",X,X,X2X5X5X5X5X5X5X:XF.x.h.d r d 4X6X:Xk.& q >X2X",
",X,X,X4X5X5X5X5X+XZ n l D D S * d l.C b S | F x.,X",
",X,X,X2X5X5X3Xj.m F ..X.O.X.' z G F | o.O.X. .% S.",
"2X2X2X4X5X4Xz.z X.X.X.X.X.X.X.X.X.X.X.X.X.X.O.S Y ",
"5X5X5X4X2XH.V X.X.X.X.X.X.X.+.+.O.X.*.X.O.*.+.;.Y ",
"5X5X5X4X<XU | X.X.X.X.X.X.X.O.+.=.=.:.*.&.:.+.*.) ",
"5X5X5X5X*XB X.X.X.X. .] ] [ o.X.X.-.&.:.-.=.:.>.v.",
"5X5X5XG.M ' X.X...X._ K Q K m l D | X.*.O.+.-.%.].",
"5X5X+Xb | X.X.X.X.X._ W..XXX[.Q.W n h F  .x D Q 2X",
"5X4XC [ X...X.X.X...V !.|.}.|. X.X{.b.n j E N ].5X",
"5X&Xm O...X.X.X.X.G B XX X}.^.^.|. X X{._..Xj.2X4X",
"2X+Xk ..{ ....{ D j Q. X XK.e % r _.|. XXXW.j.6X2X",
"<X@Xh J H J } { b Y. X}.}.{.{.[.P !  X|.! N U 6X2X",
",X,XM v v c x J m {.}. X}. X X^.`._.|.}.Y.[.v.5X2X",
",X2Xc.k & ! L g B |.|.|.|. X!.z.Y .X|.|.m.b.c.5X2X",
",X2X;X6 ! (.(.( W  X|.}.|. XK.@ 0 XX|.{.6 * n.5X2X",
",X,X2Xx.W T.$.'.`.|.|.|.|.|.^.% P  X}.~.L L F.5X1X",
"4X4X4X;Xd U./.|. X|.|.|.|.|. X_.XX|.|.E ( !.H.4X4X",
"5X5X5X5XOXd T ^  X|.|.|.|.|.|._. X|.|.U.L.L.H.2X6X",
"5X5X5X4X2X,X;Xh.P {. X|.|. X'.P K.{.{. X X( oX2X5X",
"5X5X5X4X,X,X<X,XD.C P.XX.X X X).^ Y E..X!.I ,X2X6X",
"5X5X5X6X,X,X,X2X-Xi % M E I.^.[.[.[.).( I #X<X<X6X",
"5X5X5X4X1X2X,XG.p 9.5.5 7 x.j.j.I U j.C.-X2X,X2X5X",
"5X5X5X4X2X=Xh.8.y.f.g.e.5.1X5X4X4X2X,X2X1X,X,X,X4X",
"4X2X2X4X2Xs 3.f.f.t.w.f.w.#X4X2X2X4X5X4X4X6X5X4X3X",
",X,X<X2Xx.R p a.r.<.u.f.w.F.2X,X,X5X5X5X5X5X5X5X2X",
"1X,X2X+Xb.'./ t 1.u.d.d.w.D.2X,X,X5X5X5X5X5X5X5X2X",
",X,X2XZ.Q..XI i.f.d.s.d.t.D.2X<X,X4X5X5X5X5X5X5X2X",
",X,X2XZ.E.XXA p.d.s.s.d.u.V.2X2X<X4X5X5X5X5X5X5X2X",
",X,X1X+Xb..X) 0.f.f.f.f.a.7.n.S.;X5X5X5X5X5X5X5X2X",
"1X<X2X,Xj.{.^.w 4 ,.2.1.,.e #.E h.6X5X5X5X5X5X5X2X",
"6X6X6X6Xx.( .X`.L @ : : + Q R K N @X2X2X2X2X2X3X4X",
"5X5X5X5XS.L. X.X!.5 7 , $ E K @.P ;X,X,X<X,X,X<X5X",
"5X5X5X5XS.b..X.XL.5 > . X # #.^ ].3X,X,X,X,X,X<X6X",
"5X5X5X5X=Xd T T 6 A.@X; O   0 &X5X2X2X,X,X,X,X,X6X",
"5X5X5X4X2X].; , - C.5Xk.X : > 1X5X2X,X,X,X,X,X,X5X",
"5X5X5X4X2XC., y - N.5X=X+ O . N.5X2X,X,X,X<X,X2X5X",
"5X5X5X4X,X9 , y - G.5X-X+ : . f 5X2X2X2X2X2X2X2X4X",
"2X<X,X4XC.- y t 8 2X6X].o : O 5 ,X4X5X5X5X5X5X5X2X",
",X,X,X>X8 ; , - k.5X6Xl.  O + @ :X5X5X5X5X5X5X5X2X",
",X,X2XC.4 3.1.2 F.5X4Xd 1 1 1 2 6.2X5X5X5X5X5X5X2X",
",X,X;X4.u.s.p.u.4.-X1Xu <.,.<.<.2 l.5X5X5X5X5X5X2X",
",X2X%Xa s 7.p 4.a D.2Xh.6.s d d d D.5X5X5X5X5X5X2X",
",X,X<X;X=X=X=X%X-X4X4X<X<X,X<X>X,X5X5X5X5X5X5X5X<X",
"3X2X2X4X5X4X6X5X6X6X4X2X3X3X2X3X3X4X4X5X5X4X5X4X2X",
"5X5X5X4X,X,X,X,X<X<X4X5X5X5X5X5X5X2X,X,X,X,X,X,X5X",
"5X5X5X6X,X,X,X<X,X,X4X5X5X5X5X5X5X2X2X,X,X,X,X2X5X"
};
