/* XPM */
static char *_53d61924b9c461ec8dbcdb3241198b5K7PEkhadUvBEr7zD[] = {
/* columns rows colors chars-per-pixel */
"28 50 212 2 ",
"   c #1D1D27",
".  c #22232D",
"X  c #212434",
"o  c #252B3D",
"O  c #282B38",
"+  c #2E313F",
"@  c #33343B",
"#  c #343234",
"$  c #332D27",
"%  c #453B30",
"&  c #54493A",
"*  c #795A3B",
"=  c #7F613D",
"-  c #282C41",
";  c #3A3D4C",
":  c #363A48",
">  c #373C50",
",  c #3F4454",
"<  c #3D4048",
"1  c #34526B",
"2  c #2D5475",
"3  c #395A76",
"4  c #28516F",
"5  c #474849",
"6  c #41475E",
"7  c #4C4E56",
"8  c #48525B",
"9  c #55555B",
"0  c #514C41",
"q  c #655747",
"w  c #785E47",
"e  c #645F5D",
"r  c #6D614A",
"t  c #7A674A",
"y  c #68645F",
"u  c #756C5D",
"i  c #7A6F54",
"p  c #7D7256",
"a  c #454D65",
"s  c #484F67",
"d  c #4A5464",
"f  c #475667",
"g  c #515861",
"h  c #6A6A67",
"j  c #726F6B",
"k  c #7B7776",
"l  c #78766A",
"z  c #8A562B",
"x  c #89643B",
"c  c #996A38",
"v  c #916B30",
"b  c #A36833",
"n  c #AD7B3A",
"m  c #A9703B",
"M  c #B57839",
"N  c #AE6931",
"B  c #CB7A37",
"V  c #876746",
"C  c #957549",
"Z  c #846B55",
"A  c #87775A",
"S  c #997D53",
"D  c #8C6E47",
"F  c #A17648",
"G  c #857A68",
"H  c #877E71",
"J  c #BE853B",
"K  c #C2883B",
"L  c #D9963D",
"P  c #D38F3D",
"I  c #E8873B",
"U  c #F28E3E",
"Y  c #8E825F",
"T  c #99835D",
"R  c #A29150",
"E  c #AD8850",
"W  c #B6AA4E",
"Q  c #B3AB51",
"!  c #8F8466",
"~  c #968A6C",
"^  c #9B8D6B",
"/  c #9B8765",
"(  c #84837A",
")  c #8B857B",
"_  c #9A8F6F",
"`  c #A68966",
"'  c #B5976B",
"]  c #A89B76",
"[  c #AD9069",
"{  c #AFA37B",
"}  c #B1A57D",
"|  c #B7A77B",
" . c #CA8F40",
".. c #D79540",
"X. c #E29A43",
"o. c #EA9A42",
"O. c #F39842",
"+. c #D9B645",
"@. c #E8A243",
"#. c #F3A546",
"$. c #FBA346",
"%. c #F9AB47",
"&. c #FFAC4A",
"*. c #F4AD48",
"=. c #FFB34B",
"-. c #FFBA4B",
";. c #C49C72",
":. c #DEB27D",
">. c #CBAF7D",
",. c #EAAA79",
"<. c #FEC54B",
"1. c #FFCC4B",
"2. c #FDD94B",
"3. c #FFE24B",
"4. c #FFEE4B",
"5. c #325E81",
"6. c #3C6383",
"7. c #336E98",
"8. c #2F6793",
"9. c #3977A6",
"0. c #447398",
"q. c #436B8F",
"w. c #7B7F86",
"e. c #697280",
"r. c #457AA4",
"t. c #3D85B8",
"y. c #788698",
"u. c #4687B7",
"i. c #5282A6",
"p. c #698CA3",
"a. c #3F8BC2",
"s. c #4491C8",
"d. c #449CDC",
"f. c #4599D6",
"g. c #49A5E6",
"h. c #49A7E9",
"j. c #4AA9EC",
"k. c #47A4E5",
"l. c #49ABF0",
"z. c #8D8681",
"x. c #8D8B8A",
"c. c #858787",
"v. c #948E87",
"b. c #999388",
"n. c #898E93",
"m. c #939293",
"M. c #9B9794",
"N. c #9D9C9D",
"B. c #9B9A97",
"V. c #88919A",
"C. c #A39E92",
"Z. c #B8AA82",
"A. c #AEAA9D",
"S. c #989CA2",
"D. c #8C97A4",
"F. c #A29FA0",
"G. c #9FA4AC",
"H. c #A4A4A5",
"J. c #ACAAA9",
"K. c #ABA9A8",
"L. c #B5B2AF",
"P. c #AEAFB1",
"I. c #B0AFB0",
"U. c #B4B3B4",
"Y. c #BBBBBB",
"T. c #B6B6B5",
"R. c #C1AF82",
"E. c #C4B284",
"W. c #C9BC89",
"Q. c #D7C18F",
"!. c #D5C491",
"~. c #DCC692",
"^. c #DAC993",
"/. c #F4C48D",
"(. c #E5CE97",
"). c #F7CD94",
"_. c #E3D39C",
"`. c #EBD39A",
"'. c #ECD99F",
"]. c #F1D89F",
"[. c #C3C1BE",
"{. c #EDDAA1",
"}. c #E7D6A0",
"|. c #F3DDA2",
" X c #FCDEA3",
".X c #F1D6A0",
"XX c #FFE2A6",
"oX c #FFE5A9",
"OX c #FFE9AC",
"+X c #F6E3A7",
"@X c #C0BFC1",
"#X c #C3C3C3",
"$X c #CCCBCC",
"%X c #C8C7C8",
"&X c #CECFD1",
"*X c #D5D4D5",
"=X c #DCDBDC",
"-X c #D8D8D9",
";X c #D2CECB",
":X c #E1DFDF",
">X c #DEDFE2",
",X c #E6E6E6",
"<X c #E6E7E8",
"1X c #EAEBEB",
"2X c #E7E8E9",
"3X c #F3F1EF",
"4X c #EEEFF0",
"5X c #EFF0F0",
"6X c #F3F3F3",
"7X c #F7F7F8",
"8X c #FEFEFE",
"9X c #F8F8F7",
/* pixels */
"8X8X2X,X,X,X,X,X,X6X8X8X8X1X,X-X#Xx.H.2X1X5X*X( $ #X8X8X",
"8X8X2X,X,X,X2X,X2X5X-XN.l u w x x % P.=XY.z.q b J M.8X8X",
"8X8X<X<X,X,X,X1X&Xk = n P @.*.#.c & G V v J @.&.*.Y U.8X",
"8X8X2X<X,X2X2XT.w J %.&.&.&.&.$.o.X.@.%.&.=.&.&.-.v y 6X",
"8X9X2X<X2X1X#Xt X.=.&.&.&.&.&.&.&.&.&.&.&.&.&.&.-.+.R >X",
"2X2X8X8X8X6XH L &.&.&.&.&.&.&.=.<.<.&.-.<.&.=.1.=.2.W $X",
",X1X8X8X8X*XF &.&.&.&.&.&.&.&.&.=.<.1.2.3.<.<.4.-.1.Q %X",
",X2X8X8X8XK.J &.&.&.&.%.#.O.*.=.&.&.-.3.<.3.3.<.2.3.Q $X",
",X2X8X7XJ.Z o.&.&.&.&.P C T C m J P #.-.-.<.-.-.3.3.{ >X",
",X1X6Xx.F O.&.&.&.&.&.E >.+X_.!.| T V b L &.&.@...+.A.1X",
"1X1XU.x &.&.&.&.&.&.&.n W.XXXX+XOXoX'.} t v n D c ` -X2X",
",X1XH L &.&.&.&.&.&.#.m _.XXXXOXoX+XXXoX|.} ~ _._ @X1X,X",
"3X:Xt #.O.&.&.&.&.$.M T oXXXXX>._ { |.OXXXoXoXOXZ.*X6X6X",
"8X,Xx o.O.$.O.O.U b Z '.oXXX`./ t & r {.XXXX|.} ! *X8X8X",
"8X4XZ I O.O.I O.U = _.oXXXXXXXoXOX|.~ Z.XXXX] r ! -X8X8X",
"8X8Xz.B I N b B L S +XXXXXXXXXXXXXXXoX|.XX X~.oXZ.=X8X8X",
"8X8X@Xc z p } D z T oXXXXXXXXXXXXXXXXXXXXXXXXXoX] <X8X8X",
"8X8X2Xl q |.).].p Z.oXXXXXXXoX].'.OXXXXXXXXX+X{.v.4X8X8X",
"8X8X4X%Xu ).,.,.(.].XXXXXXXXXX^.t Y {  X+X_.] ! b.8X8X8X",
"8X8X1X2Xj >././.oXXXXXXX XXXXXoX^.] ^.XX{.~ { W.B.8X8X8X",
"1X1X7X8X$Xh ] | `.XXXXXXXXXXXXXXOXOXXXXXXX;.[ _.z.3X1X1X",
",X2X8X8X8X>XL.c.G '.oXXXXXXXXXXXQ.Q.OX+XXX(.].^.M.1X,X,X",
"<X2X8X8X8X8X8X8XJ.p ^.oXoXXXXXXX^.A | !.(.XXOX{ U.1X<X<X",
"<X,X8X8X8X8X8X8X8X$Xy ^ }.oXoXoXXX'.Z.>.(.OX!.) ,X,X<X<X",
"<X2X8X8X8X8X8X8X8X%Xd % * i | !._.'.{.{.^.] ( =X6X,X,X,X",
",X2X8X8X8X8X8X8X[.f t.0.9 : m.m.H ) ) ) b.T.1X8X6X,X,X,X",
",X2X8X8X8X8X,Xn.0.f.j.k.d.r.Y.5X2X7X7X8X8X8X8X8X6X,X,X,X",
"1X3X9X9X8X4Xe.t.j.h.d.a.k.a.S.5X4X7X6X8X7X8X9X9X6X1X1X1X",
"8X8X1X,X2XB.q u.j.d.7.a.j.s.D.8X8X<X<X<X<X,X,X,X6X8X8X8X",
"8X8X2X1XY.^ :.j 9.6.t.g.h.f.y.9X8X<X<X<X,X,X,X,X6X8X8X8X",
"8X8X2X2Xb.(.XX' 3 u.h.g.h.d.y.6X8X2X,X,X,X,X<X<X6X8X8X8X",
"8X8X2X,XC.]. X( d.g.g.h.h.h.p.3X8X1X<X,X,X,X<X<X6X8X8X8X",
"8X8X,X,Xb.`.oX( d.j.g.g.g.j.p.=X;X[.:X1X,X,X,X,X3X8X8X8X",
"8X8X2X1XH.E.OXZ.t.l.j.l.j.l.6.p [ ` ) ,X1X,X,X,X3X8X8X8X",
"8X9X2X1X#Xp +X+Xp 1 1 6.6.2 5 :.:.' w S.1X,X,X,X6X8X8X8X",
"3X5X9X9X2X5 | oX|.W.& + - + t ).A t ` C.9X6X9X9X6X5X5X5X",
",X,X8X8X8XB.^ XX+XOX~ < a + q ' ` /./ *X8X8X8X8X6X,X,X,X",
",X2X8X8X8X%X{ oXXXOXG O .   @ y ` ` S.8X8X8X8X8X6X,X,X,X",
",X2X8X8X8X<X( ^._.| G m.# o X k J.Y.8X8X8X8X8X8X6X,X<X<X",
"2X2X8X8X8X8Xm.# 5 # F.6Xw.X o X #X8X8X8X8X8X8X8X6X,X,X,X",
",X2X8X8X8X8Xx.> s < J.6X$X# o X h 7X8X8X8X8X8X8X9X,X,X,X",
",X<X8X8X8X4X9 6 d ; J.1X:X5 X o @ =X8X8X8X8X8X8X3X<X,X2X",
"2X1X7X8X8XH.; a a < #X6X,X5 X - . P.8X8X8X8X8X8X6X2X2X2X",
"8X8X1X1X=X7 1 s 6 9 1X8X1X; o - . x.4X2X,X2X<X<X6X8X8X8X",
"8X9X2X5XB.+ 6 , ; M.8X8X;XO O o . k 5X<X,X,X,X,X6X8X8X8X",
"8X8X1X=X8 2 2 1 < *X8X8XH.X o O o 8 Y.1X,X,X,X,X6X8X8X8X",
"8X8X1XH.r.l.l.j.u.V.6X8Xw.8.9.9.9.7.f $X2X,X<X<X6X8X8X8X",
"8X8X4Xh q.u.i.r.s.3 L.6Xj d 8 f a g , N.1X,X<X<X6X8X8X8X",
"8X8X2XF.x.x.x.( c.c.%X8X-X[.T.T.T.T.Y.*X<X,X,X,X3X8X8X8X",
"8X8X2X<X1X,X>X,X:X5X8X8X8X8X8X8X8X3X1X2X<X,X<X,X9X8X8X8X"
};
