/* XPM */
static char *fc1f72bc5f054fd3bc391323d756c939Mb01VwyhZdMKFqAR[] = {
/* columns rows colors chars-per-pixel */
"36 50 216 2 ",
"   c #1C1E2A",
".  c #211F24",
"X  c #1F2232",
"o  c #25252D",
"O  c #2C2C33",
"+  c #252B3D",
"@  c #242737",
"#  c #38383B",
"$  c #352D20",
"%  c #413B31",
"&  c #4A443A",
"*  c #554B3C",
"=  c #4F482E",
"-  c #76573B",
";  c #734E2E",
":  c #7E6039",
">  c #1F2D40",
",  c #282C40",
"<  c #2A3344",
"1  c #363948",
"2  c #3A3F53",
"3  c #373D51",
"4  c #2F3B51",
"5  c #2A425B",
"6  c #3A4456",
"7  c #2A4C6A",
"8  c #385B77",
"9  c #344A62",
"0  c #42424B",
"q  c #4A4745",
"w  c #564E49",
"e  c #434857",
"r  c #56555A",
"t  c #45525C",
"y  c #6B5F48",
"u  c #765E46",
"i  c #79654A",
"p  c #6B655A",
"a  c #776855",
"s  c #746B52",
"d  c #454C64",
"f  c #484F68",
"g  c #495069",
"h  c #475563",
"j  c #585A63",
"k  c #4B657D",
"l  c #586573",
"z  c #696866",
"x  c #716D6B",
"c  c #7C7062",
"v  c #7C766A",
"b  c #777677",
"n  c #6A6F76",
"m  c #9D5E2C",
"M  c #875D37",
"N  c #8A592D",
"B  c #8A653B",
"V  c #976F34",
"C  c #A57536",
"Z  c #B67D3B",
"A  c #B56F36",
"S  c #DB7E37",
"D  c #856D4B",
"F  c #93724A",
"G  c #886B54",
"H  c #887A59",
"J  c #937D59",
"K  c #A67946",
"L  c #A17D5B",
"P  c #887A6A",
"I  c #827E76",
"U  c #B9833A",
"Y  c #A6973E",
"T  c #CA883B",
"R  c #D9883C",
"E  c #CF903D",
"W  c #D8963E",
"Q  c #EA8A3C",
"!  c #F28D3E",
"~  c #E5983E",
"^  c #93805A",
"/  c #AF8348",
"(  c #BAA654",
")  c #8C836C",
"_  c #8C8366",
"`  c #998B69",
"'  c #898274",
"]  c #938A7F",
"[  c #928575",
"{  c #9D9379",
"}  c #9C9576",
"|  c #A5896A",
" . c #B38F69",
".. c #A2916B",
"X. c #BA9269",
"o. c #A69976",
"O. c #AE9575",
"+. c #B4A377",
"@. c #B3A47B",
"#. c #BBAA7D",
"$. c #ABA17D",
"%. c #DB9642",
"&. c #E69D42",
"*. c #EE9B42",
"=. c #F59A43",
"-. c #FCA447",
";. c #F4A947",
":. c #FFAC4A",
">. c #F6A647",
",. c #EBB446",
"<. c #FFB34B",
"1. c #FFBA4B",
"2. c #F4B749",
"3. c #E0AA44",
"4. c #E59F70",
"5. c #D1A978",
"6. c #E6CB47",
"7. c #FFC54A",
"8. c #FFCC4B",
"9. c #FFD54B",
"0. c #FFDC4B",
"q. c #EBD347",
"w. c #FFE74B",
"e. c #34638A",
"r. c #366A93",
"t. c #387FB3",
"y. c #3878A8",
"u. c #456887",
"i. c #536C83",
"p. c #44769D",
"a. c #567692",
"s. c #4F7191",
"d. c #3D83B7",
"f. c #4486B7",
"g. c #3F8CC3",
"h. c #418CC4",
"j. c #4392CA",
"k. c #4690C3",
"l. c #4697D3",
"z. c #49A5E6",
"x. c #49A7E9",
"c. c #4AA9EB",
"v. c #46A2E3",
"b. c #858384",
"n. c #8A8683",
"m. c #87888C",
"M. c #928A85",
"N. c #9B9285",
"B. c #878C94",
"V. c #9E9B9D",
"C. c #949392",
"Z. c #8D929B",
"A. c #A49B86",
"S. c #A29C97",
"D. c #ABA49D",
"F. c #A6A29E",
"G. c #B4AC9A",
"H. c #B7AB84",
"J. c #A4A2A1",
"K. c #ACABAB",
"L. c #A9A7A7",
"P. c #B3B1AE",
"I. c #AFAEB0",
"U. c #BEBDBE",
"Y. c #B7B6B6",
"T. c #B0ACAB",
"R. c #C1AF81",
"E. c #C4B485",
"W. c #CAB989",
"Q. c #D3BE8B",
"!. c #DBB785",
"~. c #C6B892",
"^. c #F1BC86",
"/. c #D4C28F",
"(. c #D5C490",
"). c #DCCA95",
"_. c #DCC895",
"`. c #CDC291",
"'. c #FDC58B",
"]. c #F4C68E",
"[. c #E3CC96",
"{. c #E0CE9A",
"}. c #F9CA91",
"|. c #EAD59D",
" X c #E7D59C",
".X c #F9D79C",
"XX c #E0C58E",
"oX c #EDDAA0",
"OX c #F4DCA2",
"+X c #F9DFA4",
"@X c #F5E0A6",
"#X c #FFE2A6",
"$X c #FFE5A9",
"%X c #FFE9AC",
"&X c #EAE0A5",
"*X c #C3C3C4",
"=X c #C6C6C9",
"-X c #CDCCCD",
";X c #D0CFCF",
":X c #D3D1CE",
">X c #D4D3D3",
",X c #D5D6D9",
"<X c #D7D8DB",
"1X c #DCDCDC",
"2X c #DAD8D6",
"3X c #CED0D4",
"4X c #E1E0DF",
"5X c #DEDFE2",
"6X c #DFE0E4",
"7X c #E6E6E6",
"8X c #EBEBEB",
"9X c #E7E7E8",
"0X c #EFEFF0",
"qX c #F4F4F4",
"wX c #FEFEFE",
"eX c #F7F8F9",
/* pixels */
"7X7X7XqXwXwXwXwXwXwXwX7X7X7X7X7X7X7XeXwXwXwXwXwXwXeX9X9X9X7X7X7X9XwXwXwX",
"7X7X7XqXwXwXwXwXwXwXeX7X7X7X7X7X7X7XwXwXwXeXqXeXqX8X,X>X7X7X9X9X8X<XeXwX",
"8X8X8XqXwXwXwXwXwXwXeX8X8X8X9X8X8X0X7XY.] v c c a y 0 C.0XqX8X;Xb.& -XwX",
"wXwXwX8X7X8X7X7X9X9X8XwXwXwXwXwX0XV.G V T ~ &.~ %.V & J.F.M.c - C / V.0X",
"wXwXwX8X7X7X7X7X7X7X8XwXwXwXwX7XI C >.:.:.:.:.:.*.U Z U / E ~ ;.<.,.v *X",
"wXwXwXqX7X7X7X7X7X7X8XwXwXwXeXM.U <.:.:.:.:.:.:.:.:.:.:.<.:.:.<.:.,.= b.",
"wXwXwXqX7X7X7X7X7X7X8XwXwXwX*XK :.:.:.:.:.:.:.:.1.1.1.:.<.<.:.:.:.2.Y [ ",
"wXwXwX8X7X7X7X7X7X7X8XwXwXwXC.&.:.:.:.:.:.:.:.:.<.1.8.7.9.8.:.7.8.1.q.} ",
"wXwXwXqX7X7X7X7X7X7X8XwX<XM.K -.:.:.:.:.%.W &.>.<.:.:.9.w.9.8.w.9.1.6...",
"wXwXwXqX7X7X7X7X7X7X0X=Xy %.>.:.:.:.:.-.K ..J F V %.;.<.7.7.w.7.0.w.6.D.",
"0X8X8XqXeXeXqXwXqXwX4Xy %.<.:.:.:.:.:.*./ %X$X XR.J D U ;.<.1.:.7.9.( >X",
"7X7X7XqXwXwXwXwXwXwXL.C <.:.:.:.:.-.:.T O.%X#X#X$X$X)...- T >.E Z 3.G.wX",
"7X7X7XqXwXwXwXwXwXwXP &.=.-.:.:.:.-.*.B /.#X#X%X%X%X$X%X).D - ^ D O.9XwX",
"7X9X7XqXwXwXwXwXwXwXP Q =.=.=.=.=.R M @.%X#X@X+.` +.@X@X$X@X).%Xo.,XwXwX",
"7X7X7XqXwXwXwXwXwXwX[ S S =.! =.=.M W.$X#X#X|.+.^ = ^ @X$X%X%X@XA.7XwXwX",
"7X7X9XqXwXwXwXwXwXwXL.A S m m S %.F $X+X#X#X%X%X%X|._ /.$X@X@.- ) 8XwXwX",
"7X9X7XqXwXwXwXwXwXwX1X- ; O.H.i N ` $X$X+X$X+X+X[.[.OXOX$X|.+.Q.M.0XwXwX",
"0X8X8XqXqXwXqXqXqXqXqXb H .X^.[.u Q.$X$X+X$X$X|.N.I |.$X+XOX~._.A.qXeXqX",
"wXwXwXqX7X7X7X7X8X7XqXU._ }.4.}.XXOX+X+X+X+X$X~.# % {.#X$XE.z _ P.8X7X7X",
"wXwXwXqX7X7X7X7X7X7X8X7Xp Q.].+X$X$X+X$X$X+X$XoX% y #X$X+XH.$ H >X8X7X7X",
"wXwXwXqX7X7X7X7X7X7X8XwX*Xp ` R.$X+X+X+X$X+X+X$X[.|.$X$XH.$./.{ 5X8X7X7X",
"wXwXwXqX7X7X7X7X7X7X8XwXwX7XU.v Q.$X$X+X$X+X$X~.|.%X$X$X!.G &XN.7X8X7X7X",
"wXwXwXqX7X7X7X7X7X7X8XwXwXwXwX4XI W.$X+X+X+X$X..s ~.{.oX}.).|.N.qX8X7X7X",
"wXwXwX8X7X9X7X7X7X7X8XwXwX9X4X6XI.x o.oX%X$X$XoX- - w o.OX%XE.D.wX8X7X7X",
"wXwXwXqX7X7X8X9X9X8X0X;XN.| X.G 8 k # * +.{.@X%X/.i c @X%X).) 5XwX8X7X7X",
"7X8X9XqXwXwXwXwXwX8XS.| 5.'.^.G r.e.e.e M w ' o.H.E.(.W.o.I *X9X7XwXwXwX",
"7X7X7XqXwXwXwXwXU.{ X.'.'.5.X.w 7 d.v.e.8 h *X=XP.F.S.b I <X0X7X7XwXwXwX",
"7X7X7XqXwXwXwXP.s X.}.^.| S.T.t g.c.x.g.e.p.,XwXwX1Xb } H.] >X9X8XwXwXwX",
"9X7X7XqXwXwXeX] !.i 5...K.qXZ.f.z.f.z.c.f.9 >XwXwXD.W.#X@XH.n.7X9XwXwXwX",
"7X7X7XqXwXwXwXL. .L X.P 5XK.p.x.x.r.j.c.x.6 F.7X6XN.5.%X$X%X) -X9XwXwXwX",
"7X7X7XqXwXwXwXqXV.D v U.:Xi.v.x.c.j.r.v.s.^ #.$.A.H.|.%X%X{.' <X9XwXwXwX",
"7X7X7XqXwXwXwXwXwX1X8X8XB.j.c.z.x.c.p.7 F }.%X%X%X%X@X`.A.' *X8X9XwXwXwX",
"eXqXeXqXqX1X9XqX0X0XqX4Xt g.c.c.z.z.z.l.k _ !./.Q.+.] K.=X8XwXqXqXqX8XqX",
"wXwXwXqX>Xr m.8X7X7X0X2X# < e.j.x.c.c.c.z.k S.D.L.=X8XwXwXwXwXwXwX8X7X7X",
"wXwXwX7Xx u.u.J.8X9X0X2X0 3 < + 5 e.t.h.k.a.4X0X8XqXwXwXwXwXwXwXwX8X7X7X",
"wXwXqXb.u.j.4 # L.8X0XU.0 d f e 2 < + + + b 8X7X7XqXwXwXwXwXwXwXwX7X7X7X",
"wXwXJ.l l.7 3 d 0 b b 0 e 2 + d g g g d # U.0X7X7X8XwXwXwXwXwXwXwX7X7X7X",
"wX-Xz k.t.4 f f d 2 6 f 6 j m.r 0 1 1 O . e L.8X8X8XwXwXwXwXwXwXwX8X7X7X",
"wXY.j a.l 1 3 d f g f 2 r 1XwXqX;XD.#   + @ o b.8XqXwXwXwXwXwXwXwX8X7X8X",
"eXqX7X1X0X*Xx 0 1 4 1 x <XwXeXqXeXeX2Xx @ + , o Y.qXqXwXwXqXqXwXqX8X8X8X",
"7X7X8XqXwXwXwX1XK.J.*X7X7X7X7X7X7X7XwXqXp @ , X b qX7X9X7X7X7X7X7XwXwXwX",
"7X7X7XqXwXwXwXwXwXwXwX8X7X7X7X7X7X7XqXwXP.o , + q 9X9X7X7X7X7X7X8XwXwXwX",
"7X7X7XqXwXwXwXwXwXwXwX7X7X7X7X7X9X7XeXwX-XO , @ O *X7X8X7X7X7X7X7XwXwXwX",
"7X7X7XqXwXwXwXwXwXwXeX7X7X7X7X7X7X7XeXwX-Xo   > 7 k n U.8X7X7X7X7XwXwXwX",
"7X7X7XqXwXwXwXwXwXwXeX7X7X7X7X7X7X7XeXwX,X# 7 y.d.r.4 z 7X7X7X7X7XwXwXwX",
"7X9X7XqXwXwXwXwXwXwXwX7X9X7X9X7X7X9XeXwX7Xu.d.e.6 r B.,X7X7X7X7X8XwXwXwX",
"9X7X8XqXwXwXwXwXwXwXeX8X9X7X9X8X8X8XeXwX0Xr 6 j V.>X8X8X7X7X7X8X9XwXwXwX",
"wXeXwXqX8X9X8X9X8X7X0XeXwXwXeXwXeXeX0X9X9XF.P.1X0XqXwXwXwXwXwXwXwX8X9X9X",
"wXwXwXqX7X7X7X7X7X7X8XwXwXwXwXwXwXwX8X8X7X8X8X8X7X0XwXwXwXwXwXwXwX7X7X7X",
"wXwXwX0X7X7X7X7X7X7X8XwXwXwXwXwXwXwX8X7X7X7X7X7X9X8XwXwXwXwXwXwXwX9X7X7X"
};
