/* XPM */
static char *_5164ea0b70745b58a8867215c6706c5Z8Qq2Ep2TT9m4FGP[] = {
/* columns rows colors chars-per-pixel */
"34 50 211 2 ",
"   c #1C1E29",
".  c #1F2232",
"X  c #1E202C",
"o  c #232228",
"O  c #222535",
"+  c #242836",
"@  c #2B2D3B",
"#  c #272936",
"$  c #3B3835",
"%  c #3A3429",
"&  c #453D37",
"*  c #5B4B37",
"=  c #7D5F3F",
"-  c #72502D",
";  c #282C41",
":  c #213547",
">  c #323542",
",  c #363B45",
"<  c #34394A",
"1  c #373B4B",
"2  c #383D51",
"3  c #2D4254",
"4  c #394556",
"5  c #3F414D",
"6  c #2C4863",
"7  c #344D61",
"8  c #325774",
"9  c #3E617D",
"0  c #48484B",
"q  c #40465C",
"w  c #474A5A",
"e  c #535357",
"r  c #534F4E",
"t  c #635945",
"y  c #685D4A",
"u  c #69594E",
"i  c #766549",
"p  c #796953",
"a  c #444B63",
"s  c #484F67",
"d  c #484F68",
"f  c #495068",
"g  c #465665",
"h  c #575D65",
"j  c #4F5F72",
"k  c #54687A",
"l  c #5A6368",
"z  c #636468",
"x  c #736F65",
"c  c #7C7667",
"v  c #6D6E72",
"b  c #787677",
"n  c #6E717B",
"m  c #815936",
"M  c #876335",
"N  c #966A37",
"B  c #956635",
"V  c #9F753D",
"C  c #A96A37",
"Z  c #A77738",
"A  c #BB7738",
"S  c #C37836",
"D  c #816646",
"F  c #896D49",
"G  c #8C7C5C",
"H  c #887655",
"J  c #957756",
"K  c #8C6F54",
"L  c #867965",
"P  c #897F73",
"I  c #B9833D",
"U  c #CC8A3B",
"Y  c #D4893B",
"T  c #D7943E",
"R  c #EC863B",
"E  c #90825E",
"W  c #A48257",
"Q  c #B38C43",
"!  c #8A8166",
"~  c #928566",
"^  c #988A6A",
"/  c #8A827B",
"(  c #888379",
")  c #948A76",
"_  c #9B9173",
"`  c #9A9279",
"'  c #A3926B",
"]  c #A29675",
"[  c #AA9A75",
"{  c #A49B7D",
"}  c #BE9368",
"|  c #B7A77B",
" . c #B6A36B",
".. c #D19141",
"X. c #E39B41",
"o. c #EA9D43",
"O. c #F59943",
"+. c #EEA446",
"@. c #FAA346",
"#. c #F5AB47",
"$. c #FFAC4A",
"%. c #F3A545",
"&. c #FFB34B",
"*. c #FEBC4B",
"=. c #F4B447",
"-. c #C6A170",
";. c #EAA877",
":. c #D5C446",
">. c #FFC34B",
",. c #FECB4B",
"<. c #FFD44B",
"1. c #FFDB4B",
"2. c #EBD044",
"3. c #FFE64A",
"4. c #375F81",
"5. c #37658A",
"6. c #366C96",
"7. c #39729D",
"8. c #3372A1",
"9. c #3779A7",
"0. c #3C7FB0",
"q. c #597C98",
"w. c #446B8C",
"e. c #407FB1",
"r. c #4D7FA7",
"t. c #3E83B6",
"y. c #7F8085",
"u. c #4485B7",
"i. c #4B81AB",
"p. c #438CC3",
"a. c #4492CB",
"s. c #479DDB",
"d. c #49A5E6",
"f. c #49A7E9",
"g. c #4AA9EC",
"h. c #47A5E7",
"j. c #8D8C8B",
"k. c #878583",
"l. c #938D86",
"z. c #9A9489",
"x. c #868C92",
"c. c #918F91",
"v. c #999797",
"b. c #A39D95",
"n. c #A19B8D",
"m. c #AEA080",
"M. c #B3A681",
"N. c #BDAD81",
"B. c #B7AA87",
"V. c #BDB286",
"C. c #A7A499",
"Z. c #B9B19D",
"A. c #9B9EA2",
"S. c #A29FA0",
"D. c #9FA1A8",
"F. c #A4A3A4",
"G. c #ADABAB",
"H. c #A7A6A8",
"J. c #B1AEAD",
"K. c #B5B2AD",
"L. c #B5B5B6",
"P. c #B6B6B9",
"I. c #B9B9BA",
"U. c #ADAEB0",
"Y. c #C2B285",
"T. c #C9B98A",
"R. c #D3B988",
"E. c #CCBA90",
"W. c #EBBA84",
"Q. c #C1BDB8",
"!. c #D4C28E",
"~. c #D3C492",
"^. c #DCCA94",
"/. c #DDC795",
"(. c #DFD09C",
"). c #F4C58D",
"_. c #E2CF99",
"`. c #F5CC94",
"'. c #E6D39B",
"]. c #EBD59D",
"[. c #E9D99F",
"{. c #F0DA9E",
"}. c #F7D399",
"|. c #EBC08B",
" X c #C3C0BD",
".X c #EADAA2",
"XX c #F4DDA3",
"oX c #F9DFA4",
"OX c #FEE2A6",
"+X c #FEE5A9",
"@X c #FFEAAC",
"#X c #F4E2A7",
"$X c #C3C3C4",
"%X c #CCCCCD",
"&X c #CAC8C6",
"*X c #CDCED1",
"=X c #D5D4D4",
"-X c #D5D6D9",
";X c #DCDBDC",
":X c #D9D7D5",
">X c #E1DFDE",
",X c #E1E0DE",
"<X c #DEDFE2",
"1X c #DFE0E2",
"2X c #E6E6E6",
"3X c #E6E7E8",
"4X c #EAEAEB",
"5X c #E8E7E8",
"6X c #EFF0F1",
"7X c #F3F3F3",
"8X c #FEFEFE",
/* pixels */
"5X5X7X8X8X8X8X8X8X8X5X2X5X5X5X5X5X7X8X8X8X8X8X8X7X5X3X3X5X5X5X4X8X8X",
"8X8X7X5X2X5X5X2X5X4X8X8X8X8X8X8X8X6X4X4X6X6X4X4X7X8X8X8X8X8X8X8X4X3X",
"8X8X7X2X2X2X2X2X2X4X8X8X8X8X8X8X8X-X$XI.P.P.L.v.H.8X8X8X8X3Xc.1X4X5X",
"8X8X7X2X2X2X2X2X2X4X8X8X8X8X6XG.c D B N B N M & D.7X2X%Xc.u - U.4X5X",
"8X8X7X2X5X2X2X5X2X4X8X8X8X*XL Z ..#.$.$.&.%.B * P L D B Z X.X.z.3X5X",
"8X8X7X2X2X2X2X2X5X4X8X8X%XD ..$.$.$.$.$.$.$.+.+.T +.#.$.&.$.=.i H.4X",
"8X8X7X2X2X2X2X2X2X4X8X6XL X.$.$.$.$.$.$.$.$.$.$.$.$.$.$.$.$.=.- k.4X",
"8X8X6X2X2X2X2X5X2X4X8XP.A $.$.$.$.$.$.$.$.&.>.>.$.>.*.$.&.*.*.:.` 3X",
"7X4X7X7X7X7X7X7X7X8X1XP X.$.$.$.$.#.&.$.$.$.&.,.,.1.1.$.<.<.*.2.` 7X",
"2X2X7X8X8X8X8X8X8XG.K U @.$.$.$.$.I W A T +.$.&.,.1.<.3.1.1.*.2.B.8X",
"2X5X7X8X8X8X8X8XF.B %.$.$.$.$.$.@.W ~.M.~ F Z T $.&.*.1.&.1.3.:.I.8X",
"2X2X7X8X8X8X8X-Xi #.$.$.$.$.$.$.R W @X+X@X.X| E M U $.&.$.=.,. .5X8X",
"2X2X7X8X8X8X8XS.I $.$.$.$.$.$.$.U [ OXOXOXOX+X@X!.E N T Z M ..Z.8X8X",
"2X5X7X8X8X8X8X/ U O.@.$.$.$.$.Y F [.OXOX+X#X@XOXOX#X| H | ^ n.2X8X8X",
"2X2X7X8X8X8X8X/ S R R O.@.R A i !.+XOX{.E t i ^.OXOX@X#X@X| &X4X8X8X",
"4X4X7X8X8X8X8Xc.S R R R O.O.M (.+XOXOXXX^.V.p t '.OX#X#X~.[ %X6X7X8X",
"8X8X7X2X5X2X4XL.C S m = B Y F OXOXOXOXOX+X@X@XM.E.+XoX' t c 5X8X4X5X",
"8X8X7X2X2X2X3X2Xu * T.'.' - [ @XOXOXOXOXOXT.B.oXOXOXXX!..Xz.4X8X5X2X",
"8X8X7X2X2X2X2X4Xz.G `.;.}.G !.OXOXOXOXOX_.( v ^.OXOX.XZ.Y.n.8X8X5X3X",
"8X8X7X2X2X2X5X5X&XL `.;.).}.oXOXOXOXOXOX~.o % (.OX@XN.$ G K.8X8X5X2X",
"8X8X7X2X2X2X2X2X2Xx | ].#XOXOXOXOXOXOXOXXXt H +XOX'.V.* G :X8X8X5X5X",
"8X8X7X2X2X2X3X2X5X-X/ c E #XOXOXOXOXOXOX@XoXoXOXOXY.~ [.m.2X8X8X5X5X",
"8X8X7X2X2X2X2X2X2X6X8X3Xj.[ @X+XOXOXOXOX .~.@X@XOX|.L .X` 5X8X8X6X5X",
"4X5X7X8X8X7X7X8X7X=X&X=X2Xj.` .XOXOXOXOX| * _ T.^.}.'..X( 5X7X4X7X7X",
"5X2X7X8X8X8X8X-Xz.[ | [ ) j.b ! ~.+X+XOXXXJ - $ | OX@X| b.4X5X5X7X8X",
"2X2X7X8X8X8X$X) ^.+X@X}.J 6.q.e $ G Y.{.OX].^ _ #X+XT.c ;X5X5X5X8X8X",
"5X2X7X8X Xz.{ {.@X[.E.-.l d.f.7.1 y & ! ) ` B.N.M.) k.=X4X2X2X5X8X8X",
"2X2X7Xv._ ^.+XOXY.l.F./ 5.d.f.f.u.7.8 H.;X%X$XQ.G.D.5X6X5X2X2X5X8X8X",
"2X5X1X( XX+XOX/./ 4X7X-Xg 5.u.d.d.f.8.4 A.8X8X2X_ ] / L.3X5X2X3X8X8X",
"2X2X6Xj.~.@X@X/.C.8X5Xx.a.a.7.u.d.f.t.6.8 L.5Xz.!.@X!._ C.5X5X3X8X8X",
"6X4X7X$X! '.| )  X8XU.i.g.f.f.d.h.g.t.6.7 u ~ * | _.@X#X^ %X6X6X7X8X",
"8X8X6X4XP.c k.K.2X=Xq.d.d.f.h.h.h.g.8.3 W W.R.E | ~ B..X` 2X8X8X5X5X",
"8X8X7X2X5X;X4X4X4Xx.a.g.h.h.h.f.d.g.9.t } W.;.H x ~ t i J.8X8X8X5X5X",
"8X8X7X2X2X5X2X3X,Xg t.g.g.h.d.d.d.g.i.$Xb.P l.G.%X&XU. X8X8X8X8X5X5X",
"8X8X7X2X3X5X1X4X-X5 + 7 t.d.g.g.g.g.q.;X4X5X5X4X7X8X8X8X8X8X8X8X5X2X",
"8X8X7X2X5X1Xb U.1Xw 4 @   : 8 7.i.u.k ;X5X5X5X2X7X8X8X8X8X8X8X8X5X2X",
"8X8X7X5X2Xb 2 j %Xb < a 4 >   o # O b 4X2X2X2X2X4X8X8X8X8X8X8X8X4X5X",
"8X8X7X4Xc.4 8.: r I.z > q f a > @ 5 $X4X2X2X2X2X7X8X8X8X8X8X8X8X4X5X",
"4X4X7XK.0 5.6 . O r b.e X 2 d d > v 7X8X8X8X8X8X7X4X4X4X4X4X5X4X7X8X",
"2X5X;Xh 8 8.+ ; ; O o # O   < s a w >X8X8X8X8X8X7X2X5X2X2X5X5X5X8X8X",
"5X5Xb.< 5.4 o @ ; ; ; ; O @ , q d 1 H.8X8X8X8X8X7X2X2X2X2X2X5X5X8X8X",
"2X2X2X&X&X:Xj., . . +   1 P.k.< f 4 n 8X8X8X8X8X7X2X2X2X2X5X5X5X8X8X",
"2X2X7X8X8X8X8X;Xv.v z y.*X7XH.2 d a e 7X8X8X8X8X8X2X2X5X2X2X2X5X8X8X",
"2X2X7X8X8X8X8X8X8X8X5X4X4X4XP.1 a 4 5 F.2X8X8X8X7X2X2X2X2X2X5X5X8X8X",
"2X2X7X8X8X8X8X8X8X8X2X2X5X4X X, < 8 p.u.k J.8X8X7X5X2X2X2X2X2X5X8X8X",
"6X7X7X7X7X7X7X7X7X7X7X7X6X7X&X4 p.g.s.i.h l.7X7X7X7X6X6X7X7X4X7X6X7X",
"8X8X7X2X2X2X2X2X2X5X8X8X8X8X:Xq.a.w.h k.I.2X2X2X6X8X8X8X8X8X8X8X5X2X",
"8X8X7X2X2X2X5X2X2X4X8X8X8X8X4Xz l / I.2X4X5X2X2X6X8X8X8X8X8X8X8X5X2X",
"8X8X7X2X2X2X2X2X2X4X8X8X8X8X8X%X2X5X5X5X5X2X2X5X6X8X8X8X8X8X8X8X5X5X",
"8X8X7X2X2X2X2X2X5X4X8X8X8X8X8X8X8X4X2X5X5X2X2X2X6X8X8X8X8X8X8X8X5X2X"
};
