/* XPM */
static char *_b95ad93c74d4fb5eb84843bc3bfef8bm3wFqceGeFpiTnJ0[] = {
/* columns rows colors chars-per-pixel */
"34 50 223 2 ",
"   c #15151B",
".  c #352316",
"X  c #161A28",
"o  c #1E212D",
"O  c #1E2030",
"+  c #23232A",
"@  c #262A3A",
"#  c #353538",
"$  c #393126",
"%  c #463C2B",
"&  c #473D35",
"*  c #524636",
"=  c #674828",
"-  c #6A543A",
";  c #7C5533",
":  c #1A2F46",
">  c #1F3042",
",  c #282C42",
"<  c #2E3346",
"1  c #323544",
"2  c #373A4A",
"3  c #363E54",
"4  c #213A53",
"5  c #364056",
"6  c #1E4F79",
"7  c #2B4A67",
"8  c #355E7E",
"9  c #2E5270",
"0  c #494646",
"q  c #59524B",
"w  c #454A56",
"e  c #4A525C",
"r  c #535258",
"t  c #594E46",
"y  c #645A48",
"u  c #6C5B4F",
"i  c #6C6349",
"p  c #77694C",
"a  c #67615B",
"s  c #796A59",
"d  c #444B64",
"f  c #4B4E64",
"g  c #4A536B",
"h  c #4D5361",
"j  c #585B67",
"k  c #5F636F",
"l  c #686666",
"z  c #736C66",
"x  c #787269",
"c  c #6F717A",
"v  c #797677",
"b  c #696C78",
"n  c #855D36",
"m  c #8F5329",
"M  c #A65823",
"N  c #9A672E",
"B  c #956A36",
"V  c #8F682B",
"C  c #A96A34",
"Z  c #B47836",
"A  c #A97031",
"S  c #D27935",
"D  c #C67231",
"F  c #E67932",
"G  c #8A6D48",
"H  c #966A44",
"J  c #8A7C5D",
"K  c #94764E",
"L  c #A1754A",
"P  c #867967",
"I  c #957C64",
"U  c #877C73",
"Y  c #BF8237",
"T  c #C58A35",
"R  c #D99138",
"E  c #C98635",
"W  c #F88E3E",
"Q  c #E69739",
"!  c #ED833C",
"~  c #CAA23A",
"^  c #F0A03D",
"/  c #E5D33E",
"(  c #96835B",
")  c #B0915D",
"_  c #8A8364",
"`  c #968867",
"'  c #9D926A",
"]  c #89837B",
"[  c #918677",
"{  c #9C947A",
"}  c #A4936C",
"|  c #B89166",
" . c #A69779",
".. c #A18765",
"X. c #ACA279",
"o. c #B4A37B",
"O. c #B7A87A",
"+. c #D79142",
"@. c #EE9A41",
"#. c #F39441",
"$. c #C5B545",
"%. c #FCA245",
"&. c #FBA549",
"*. c #FEAB4A",
"=. c #F6A945",
"-. c #FFB34D",
";. c #FFBC4D",
":. c #FFB246",
">. c #FFBC51",
",. c #D09C6C",
"<. c #C4A77A",
"1. c #DBA873",
"2. c #E6A675",
"3. c #E7B17B",
"4. c #F4B27E",
"5. c #FDC74A",
"6. c #FFDB4A",
"7. c #FED54B",
"8. c #FFEB4B",
"9. c #FEE647",
"0. c #346387",
"q. c #356B94",
"w. c #3C78A3",
"e. c #2F75A6",
"r. c #4C6A82",
"t. c #4F6E8B",
"y. c #797981",
"u. c #667A8D",
"i. c #477BA5",
"p. c #527FA0",
"a. c #807F81",
"s. c #3C83BB",
"d. c #7B828B",
"f. c #5084AC",
"g. c #4692CA",
"h. c #469BD7",
"j. c #408EC8",
"k. c #49A4E4",
"l. c #4AA9EC",
"z. c #47A7EB",
"x. c #4BAEF3",
"c. c #47AEF5",
"v. c #4DB3FA",
"b. c #7BC5F9",
"n. c #848283",
"m. c #8D8B8B",
"M. c #858689",
"N. c #948E87",
"B. c #99958A",
"V. c #888C94",
"C. c #979697",
"Z. c #A59C84",
"A. c #A19B97",
"S. c #B7AA82",
"D. c #ADA49C",
"F. c #BDB49B",
"G. c #9C9CA2",
"H. c #9FA9B4",
"J. c #A4A5AA",
"K. c #A8A7A9",
"L. c #B0AEAF",
"P. c #AEADB2",
"I. c #AFB4B9",
"U. c #BBBABC",
"Y. c #B7B7B9",
"T. c #B3B1AD",
"R. c #C7B888",
"E. c #D1BB88",
"W. c #F4BD85",
"Q. c #ECB980",
"!. c #C1BDBA",
"~. c #D6C491",
"^. c #DCCB97",
"/. c #D6C58D",
"(. c #EEC58C",
"). c #E3CA93",
"_. c #E9D59B",
"`. c #FCD79B",
"'. c #CAC3BB",
"]. c #DBD1A0",
"[. c #FCDDA3",
"{. c #F5DDA2",
"}. c #EEDAA1",
"|. c #F6E3A7",
" X c #FEE1A6",
".X c #FEE6A9",
"XX c #FFEBAD",
"oX c #F2E3AA",
"OX c #FFEEB0",
"+X c #FFF4B3",
"@X c #FFF8B6",
"#X c #FFFCBA",
"$X c #EEE1A8",
"%X c #BDBDC0",
"&X c #AFD5EF",
"*X c #93D1FB",
"=X c #C5C3C4",
"-X c #C6C6CA",
";X c #CBC9C9",
":X c #C9CDD2",
">X c #CFD3DB",
",X c #D2D3D5",
"<X c #DBDBDC",
"1X c #D3D6DC",
"2X c #D4D2CF",
"3X c #E3DDD9",
"4X c #C9DCE8",
"5X c #D9DEE4",
"6X c #DEE5EA",
"7X c #D0E3F0",
"8X c #E5E5E5",
"9X c #E5E6EA",
"0X c #ECECEC",
"qX c #EAE7E4",
"wX c #F0EFEF",
"eX c #FAF4EE",
"rX c #EAEEF2",
"tX c #EDF1F5",
"yX c #EBF9FF",
"uX c #F4F4F4",
"iX c #F5F6F9",
"pX c #FEFEFE",
"aX c #F7F9F9",
/* pixels */
"qX9XuXpXpXpXpXpXpXpX8X8XqX9X8XqX9XaXpXpXpXpXpXpXuX8XqX9XqX9XqX9XpXpX",
"pXpXuXqX9XqXqX9X9XqXpXpXpXpXpXpXpX0X8X8X8X8X8X8X0XpXaXpXpXpXpXpXqXqX",
"pXpXpX0X6XqX8XqX8X8XiXpXpXpXpXpXpXpXuXtXrXtXuXuXpXpXpXpXpXpXpXuX6X8X",
"pXpXpX0X8X8X8X9XqX8XuXpXpXpXpXpXiXI.a.P P z x V.J.U.=XpXpXpXpXpXwXqX",
"pXpXpXwX8X8XqX8X8X8XuXpXpXpXpXU.s N T Q Q Q E A N . C.pXpXpXpX:XJ.9X",
"pXpXpXwX8X8X9X8X8X8XuXpXpXpXL.B ^ -.-.-.-.*.>.*.N y C.G.B.v x = t 9X",
"pXpXpX0X8XqXqX8X8X8XuXpXpX,XH :.-.&.*.*.*.*.*.&.=.=.R T T T R :.K 1X",
"0X0X0XiXaXaXaXaXaXaXiXaX5XU Q -.*.*.*.*.*.&.-.-.:.&.-.-.;.-.*.;.H V.",
"8X8X8XaXpXpXpXpXpXpX<Xx G +.=.&.*.=.*.;.-.-.*.-.5.-.-.-.=.*.&.>.V l ",
"8X8X8XaXpXpXpXpXpX6Xy E :.-.*.*.*.-.@.B Y @.-.*.:.6.7.6.&.;.5.>./  .",
"qX8X8XaXpXpXpXpXpXx E -.*.*.*.*.*.-.L S.O.G B @.-.;.9.6.5.8.6.-./ B.",
"8X8X8XaXpXpXpXpX1Xn -.=.*.*.*.*.*.%.K oX+XXXR.p N :.>.5.8.5.7.6.$.=X",
"8XqX8XiXpXpXpXpXI.A %.#.*.*.*.-.*.N o.XX[. XOXOXX.- R ;.*.;.8.9.) iX",
"8X8X8XaXpXpXpXpXJ.Z F W #.%.#.S m ` XX X X X[.[.+X].- Y =.A =.~ !.pX",
"iXiXaXuX0XwX0XaXI.C W D S &.^ - R.OX[. X X X X X{.XX|.i p z B F.tX0X",
"pXpXpX0X8X8X8XqX:Xn ; P u M S } #X[. X X{.{.XX.X X X.XXX#X/.P.pX8X8X",
"pXpXpXwX8XqX8X8XtXq ' .X_.p = ^..X X X.X^.i * ].XX X X`.XXS.<XpX8X8X",
"pXpXpXwX8X9X8X3XiXU /.2.4.E._ +X[. X X XoX$X$ p #X{. XXXXX .9XpX8X8X",
"pXpXpX0X8XqX8X8XiXN.' `.W.{. X X X X X{._ i p y +X XXXX.O.D.pXtX8X8X",
"pXpXpXrX8X9X8X8X0X5Xa } _..X X X X X X XoXO.. $  X|.J y ` U.yXb.4XqX",
"pXpXpX0X8X8X8X8X8XqX9XG.y {..X X X XXX}.R.XX/.} |.o.$ o.Z.qXpXtX8X8X",
"uXuXuXuXuXiXuXuXuXuXuXpXK._ +X[.[.XX~.% 0 { XX#X).p $XR.C.pX7X*XrXiX",
"8X8X8XuXpXpXpXpXpXpXiX0XpXV.{ +X[.|.L M % a. .).(.J OXS.I.6X4X*XaXpX",
"8X8X8XiXpXpXpXpXpXpX;XU.'.3Xq _ @XOXG F m * & .._.[.XX` ,Xb.4XeXpXpX",
"8X8X8XiXpXpX9XJ.Z.P 8 s.i.f.t.: - _.~.H m . ` @X`.OX/.] wX4X7X0XpXpX",
"8X8X8XuXpX=Xx R. X,.w.v.x.x.v.g.: # ` S.X.O.OXOX+X_.s -XwXqXqXwXpXpX",
"qX8X8XpX<XP _.@X_...w x.h.g.g.l.h.u.=XN.[ { o.o.` z U.uX8X8X8X0XpXpX",
"8X0X8XJ.a /.+X' A.c 7 q.0.w.g.z.k.5 ;XpXuX5XM.y.1XrXpX8X8X8X8XwXpXpX",
"iX<XP X.o.^.O.G.U.i.c.k.z.x.z.z.h.6 u.eXuXpXP U :X'.!.<XwXwXwXuXuXuX",
"pXC.O.X.E.#XR.[ r.z.k.k.k.k.k.l.j.4 w 8XuX1XI G ( H ; =XpXpXpXuX8X8X",
"0XU ` t  . .{ p 9 v.l.k.k.k.k.x.i.B | B.D.U <.| ,.n a 2XpXpXpXiX8XqX",
"aX[ [ U.-X>X<Xr o 8 h.v.l.k.k.l.0.1.`.3.2.W.`.W.Q.n y <XpXpXpXuX8X9X",
"pXaXpXaXqX0XqXr d 1 @ q.h.x.v.z.t.I 3.(.3.,...| { P v aXpXpXpXuX8X8X",
"pXpXpX0X8X6XuXc 2 g @ , @ 7 w.e.J.9Xm.m.B.P.-X%X8XiXwXpXpXpXpXiX8XqX",
"pXpXpX0X8X8XqX,X2 w 2 2 f 5 1   n.9XpXtX0XtX0X0XuXpXpXpXpXpXpXiX8X8X",
"aXaXiXuXwXwX0XpXT.2 g @ 5 3 @ o X + l 5XaXqXwX0XwXaXiXiXaXiXaXuX0XwX",
"8X8X8XiXpXpXpXpXqXw g < r y.q X @ , X + Y.pXpXpXuX8X8X8X8X8X8XwXpXpX",
"8XqX8XiXpXpXpXpXwXh d 2 n.pXiXY.# o < @ X U.pXpXuX8X8X9X9XqX8XwXpXpX",
"8XqX8XiXpXpXpXpXwXw f 3 l 0X3XaX,X# O < @ + 2XaXqX0XqX8X8X9X8XwXpXpX",
"8X8X8XaXpXpXpXpX8X1 g 5 b 0X8X8XiX=Xo @ @ X 7 h # V.wX9X8XqX8X0XpXpX",
"8X8X8XaXpXpXpXpX=X1 f < l aX0XqX8XaXb   @ 0.h q l j 8XqX8X8X8XwXpXpX",
"8X8X8XiXpXpXpXpXC.+ 7 0.d a.5XqX3XpX;X  0.e a C.c C.0X8X8X8X8XwXpXpX",
"0X0X0XiXaXaXaXpXz 6 f.d.y.r N.aXqXuXuXe 5 x C.b y.rX0X0X0X0X0XwXaXaX",
"pXpXpX0X8XqXqX<Xr.i.z v m.a !.pXpXwXaXn.@ M.l c rXpXpXpXpXpXpXaX8XqX",
"pXpXpX0X8X8XwX=Xg c ] C.l C.pXpXpXuX8X6Xm.v L.qXuXpXpXpXpXpXpXiX8XqX",
"pXpXpXwX8X8X0X,X5 j c l K.pXpXpXpXwX8XqXuX0XtX8XwXpXpXpXpXpXpXiX8X9X",
"pXpXpX0X8X8X8X0XU.C.P.0XpXpXpXpXpXuX8X8X8X8X8X8XuXpXpXpXpXpXpXaX8X8X",
"pXpXpXuX8X8XqXqXwXwXpXpXpXpXpXpXpXuX8X8X8X8X8X8XuXpXpXpXpXpXpXiX8X8X",
"pXpXiXqX8X8X9XqX8X8XiXpXpXpXpXpXpXuX8X9X8X9XqX8XtXpXpXpXpXpXpXaX8X9X",
"pXpXuX8X8X8XqX8X8X0XpXpXpXpXpXpXpXqX8X8XqX8X8X8XwXpXpXpXpXpXpXpXqX8X"
};
