/* XPM */
static char *bc3f6d673d0e46b7de018087cdd30328tq0SuIGJV8Kw0ayA[] = {
/* columns rows colors chars-per-pixel */
"50 50 240 2 ",
"   c #13120E",
".  c #271E1C",
"X  c #3C1912",
"o  c #2A211D",
"O  c #3D251B",
"+  c #2C2922",
"@  c #332623",
"#  c #392A27",
"$  c #3D3734",
"%  c #383227",
"&  c #4C1E16",
"*  c #471C15",
"=  c #531B18",
"-  c #691B12",
";  c #4C221A",
":  c #46271A",
">  c #5B241A",
",  c #58261A",
"<  c #52381B",
"1  c #65271B",
"2  c #71341F",
"3  c #432E2D",
"4  c #432A20",
"5  c #572923",
"6  c #44312E",
"7  c #483527",
"8  c #453432",
"9  c #4C3433",
"0  c #4C3936",
"q  c #463C39",
"w  c #523B3A",
"e  c #503837",
"r  c #55392A",
"t  c #6C2D21",
"y  c #662F23",
"u  c #613522",
"i  c #7A3528",
"p  c #793836",
"a  c #702E22",
"s  c #5A4A27",
"d  c #4B4338",
"f  c #56413E",
"g  c #584839",
"h  c #59523E",
"j  c #664423",
"k  c #6B4836",
"l  c #71543A",
"z  c #796732",
"x  c #4A4645",
"c  c #574945",
"v  c #5B5553",
"b  c #5D554B",
"n  c #644D4C",
"m  c #675947",
"M  c #6C5C5B",
"N  c #665756",
"B  c #755A58",
"V  c #754E46",
"C  c #766648",
"Z  c #6D635D",
"A  c #696054",
"S  c #776A54",
"D  c #7C7259",
"F  c #6D6049",
"G  c #6A6664",
"H  c #796665",
"J  c #7C6E6A",
"K  c #756864",
"L  c #7B736B",
"P  c #7B7876",
"I  c #8B1817",
"U  c #971716",
"Y  c #95100F",
"T  c #A81413",
"R  c #BB1614",
"E  c #85211E",
"W  c #892B24",
"Q  c #972A25",
"!  c #8C3329",
"~  c #95352C",
"^  c #873A35",
"/  c #943B34",
"(  c #A42926",
")  c #BE3939",
"_  c #CA1515",
"`  c #C51514",
"'  c #DC1516",
"]  c #C62D2D",
"[  c #C13434",
"{  c #864638",
"}  c #984236",
"|  c #92523F",
" . c #867334",
".. c #884D4C",
"X. c #944442",
"o. c #8B534A",
"O. c #985644",
"+. c #875756",
"@. c #A55948",
"#. c #87674C",
"$. c #85785A",
"%. c #997959",
"&. c #90704C",
"*. c #A56555",
"=. c #A77858",
"-. c #836F6E",
";. c #84786B",
":. c #847A74",
">. c #8D7B7A",
",. c #867877",
"<. c #927E7D",
"1. c #927C73",
"2. c #996868",
"3. c #AD756E",
"4. c #A08B3E",
"5. c #8B8445",
"6. c #98894A",
"7. c #A59943",
"8. c #B0865D",
"9. c #B8B44D",
"0. c #AFA548",
"q. c #8A8469",
"w. c #988869",
"e. c #888379",
"r. c #9C927A",
"t. c #998975",
"y. c #A98967",
"u. c #BA8A65",
"i. c #A2926D",
"p. c #BA936B",
"a. c #A49571",
"s. c #AA9A76",
"d. c #B99976",
"f. c #A78678",
"g. c #B9A57C",
"h. c #B2AF66",
"j. c #C0BD50",
"k. c #C1BE4F",
"l. c #C4966E",
"z. c #C7A77C",
"x. c #D5A97A",
"c. c #E2A979",
"v. c #E1B27F",
"b. c #C9C453",
"n. c #DBD85B",
"m. c #D1CE5F",
"M. c #E1DD5E",
"N. c #E4E15E",
"B. c #E9E661",
"V. c #FAF767",
"C. c #FFFE6A",
"Z. c #F6F465",
"A. c #F1EE62",
"S. c #8D8C8A",
"D. c #898684",
"F. c #978987",
"G. c #9A9594",
"H. c #9B9897",
"J. c #95928B",
"K. c #A58D8B",
"L. c #A69588",
"P. c #AA9696",
"I. c #A29B9B",
"U. c #A99898",
"Y. c #B19F9E",
"T. c #B8A882",
"R. c #A6A598",
"E. c #B2A49D",
"W. c #BBA996",
"Q. c #AAA383",
"!. c #AAA9A7",
"~. c #B4A3A2",
"^. c #B0ADAD",
"/. c #B7AAA7",
"(. c #B4B3B2",
"). c #BBBCBB",
"_. c #B9B7B6",
"`. c #B4B1AC",
"'. c #C09B80",
"]. c #CAB386",
"[. c #CEBA8B",
"{. c #C6B286",
"}. c #D3BD8D",
"|. c #DBB787",
" X c None",
".X c None",
"XX c None",
"oX c None",
"OX c None",
"+X c None",
"@X c None",
"#X c None",
"$X c None",
"%X c None",
"&X c None",
"*X c None",
"=X c None",
"-X c None",
";X c None",
":X c None",
">X c None",
",X c None",
"<X c None",
"1X c None",
"2X c None",
"3X c None",
"4X c None",
"5X c None",
"6X c None",
"7X c None",
"8X c None",
"9X c None",
"0X c None",
"qX c None",
"wX c None",
"eX c None",
"rX c None",
"tX c None",
"yX c None",
"uX c None",
"iX c None",
"pX c None",
"aX c None",
"sX c None",
"dX c None",
"fX c None",
"gX c None",
"hX c None",
"jX c None",
"kX c None",
"lX c None",
"zX c None",
"xX c None",
"cX c None",
"vX c None",
"bX c None",
"nX c None",
"mX c None",
"MX c None",
"NX c None",
/* pixels */
"cXbXbXcXgXgXkXbXnXmXgXhXlXcXiXS._.jXgXcXmXnXxXdXiXiXeXeX+X_._._.rXiXpXiXdXgXnXnXnXkXjXhXmXmXbXNXgXgX",
"xXkXkXxXcXcXcXkXkXxXcXmXiXJ q . _.mXmXjXqXI.P M N N N N N M M M K J ,.D.S.G.^.eXgXcXcXcXkXNXNXvXcXcX",
"kXgXjXxXbXbXcXjXgXkXmXcX_.$ 9 # wXhXH.N 9 3 9 9 e e 9 9 9 9 0 9 e e w n H F.U.F.D.I.pXnXkXjXjXvXbXnX",
"cXbXmXxXgXjXkXmXmXmXlX).P $ # # G c 3 8 9 9 9 9 9 9 9 9 9 9 e 0 9 e 9 9 9 e F.yX@XI.,.S.pXmXmXkXgXlX",
"vXcXmXvXkXjXxXbXcXlXrX^.G . . 3 @ 6 9 9 9 9 9 9 9 9 9 9 9 e e w w f n N H K.@XtXtXtXtXU.G _.mXxXlXlX",
"xXhXhXxXbXbXjX^.P b w 8 3 3 8 9 w 9 c M H -.-.>.<.-.N <.G.P.~.~.$X~.F.P.$X~.$X@XtX@XP.>.K.G H.vXbXbX",
"xXxXxXvXkX(.N q 3 9 w c M -.F.K.<.>.B ~./.~.~.~.Y.Y.H H P.Y.Y.~.~.~.U.H H K.,.Z H n e 9 f ,.v ^.cXvX",
"cXnXnXgXP f F.e.M -.<.@X@X$XU.<.N n e f f w w w e e e 9 9 e e e e w w w 9 9 # 3 9 9 9 9 9 w J v pXgX",
"xXkXlXP 0 ~.yXtX>.K.B -.N w e 9 9 9 3 9 9 9 9 9 9 9 9 9 @ @ 8 9 9 9 e 9 9 9 @ h 3 9 e 9 9 9 N c ^.mX",
"xXjX(.@ >.tX/.<.c w 9 9 9 9 9 9 9 9 . + 9 9 9 9 9 9 9 e # S d 3 9 9 9 9 9 9 6 [.S 3 9 9 9 9 w x D.mX",
"vXbXP # <.-.w 9 9 @ 9 9 9 9 9 9 9 e + D 8 9 9 9 9 6 6 9 @ w.XX6 8 3 6 7 3 3 % -X-Xf 3 3 3 # # @ G lX",
"vXcXG # w 9 9 9 3 + # 9 9 9 9 8 6 6 o g.a.8 f h n m V m d S a.h h C w.s.s.d.g.6X9X%Xs.i.i.$.v D.(.NX",
"xXjXP @ 9 9 9 9 # c c # 8 8 8 d f + D ,X6X&X-X,X5X5X8XD   . o o + % d $.;X9X9X8X,Xi.m h h a.t.cXbXbX",
"xXcX^.+ 3 # $ 8 q G L G Z K J L :.q XX9X8X9X9X9X9X9X9X*X$.#.| | | o.#.F w.8X8X8Xi.m C S D s.e.cXvXvX",
"cXbXlX,.v q G J J :.:.K J L :.J P d [.9X8X,X|.|.].oX{.@.Q ~ *.3.3.*./ ~ *.*X9X,X&.! } | ! { :.zXhXjX",
"xXlXlXvXgXv K -.K c m S S A Z K Z 6 =.*.| } ~ ~ ~ Q R T f.aXMXmXnXnXaXf.E { .X&.Y 3.zXkXL.I I G.cXcX",
"NXzXjXvXbXwXv G q i.-X1X<X;Xg.m = i O.=.p.x.|.-X}.i ` 1.cXbXdXrXH.D.hXsXw.I F W ^ +X!.!.aX{ I 3XbXbX",
"vXnXnXvXzXlX+Xx m 9X1Xv.c.oX1X,Xw.}.8X9X9X8X9X9X5X{ R r.MXnXD.P $   r.sXL.Y > I p L $ $ 7X{ I 3XjXjX",
"vXmXcXvXlXkXcX).h ,X1Xc.c.x.2X8X1X8X8X8X8X8X8X8X8Xy.T ~  XsX4XJ b ;.4X=X^ T { i I #.q.=XL.U ..hXkXkX",
"kXgXgXxXbXbXcX+X5 h }.1X>X>X6X8X9X8X8X8X8X8X8X8X8X5Xy.Q Q *.d..X.Xz.*.W ~ g.;Xq.o.k l o.a p wXcXbXbX",
"xXxXxXxXxXxXlXB T B e.e.r.s.w.[.9X9X8X8X8X8X8X8X8X8X9X%X3.@./ ~ / } @.p.;X9X:Xx.z.%.w.l.y.P cXxXxXcX",
"cXbXbXvXgXgXkXuX@XjXlXiXiXdX).e.a.-X8X9X9X8X8X8X8X8X8X8X9X6X<Xa.s.,X9X9X9X9X].C T.-X9X9Xs.R.bXxXgXgX",
"xXlXkXxXcXmXcXNXNXxXcXmXcXNXNXgX+XJ.r.].,X9X9X9X8X8X8X8X8X8X8X1X[.g.{.[.[.].i.;.6X9X9X[.L pXNXvXcXcX",
"kXjXjXxXmXmXcXjXjXlXmXbXmXlXzXjXmXmXiXD.h $.g.%X,X8X8X8X9X9X9X9X9X8X,X;X;X;X{.6X8X-Xg.e.iXjXjXxXbXbX",
"cXnXbXvXjXjXkXnXbXcXlXjXjXmXnXbXlX3Xe.s s s l #.l S L.g.{.[.%X%X:X:X;X-X&X%X].T.L.J.(.hXcXnXbXxXjXjX",
"cXcXcXvXkXkXxXcXcXcXkXNXxXcXzXuXQ.$.9.b.7.< j z s d >.P.wX_.`.!.!.!././.`.`.3XiXjXkXkXkXvXmXcXxXkXkX",
"kXzXgXxXbXbXcXjXgXlXbXxX3XQ.h.m.B.C.C.C.C. .R T , - Y V lXnXnXnXjXjXkXbXMXbXlXzXjXcXbXbXxXgXgXvXbXbX",
"xXxXxXxXxXvXxXxXxXxXhXe.5.A.C.C.C.C.C.C.M.z T ' - 1 Y i pXvXvXvXxXxXxXvXxXxXxXxXvXvXxXxXxXxXxXvXxXxX",
"cXbXbXcXgXgXkXbXcX_.i.y.&.9.Z.C.C.V.n.0.j.9.1 2 b.k.# ~.NXgXgXlXbXbXmXjXgXjXnXbXnXlXjXhXcXbXbXxXgXgX",
"xXkXlXxXmXcXcXjXG.g.<X>Xc.8.5.9.k.7.9.N.C.k., z C.N.7 3XvXMXcXcXkXlXkXcXcXcXkXlXkXcXcXcXxXkXlXxXcXmX",
"NXgXzXxXbXbXmX^.i.0X9X9X8Xz.5.9.m.B.V.C.C.7.=  .C.M.7 ^.vXmXbXcXjXjXlXnXbXnXNXjXlXcXbXnXNXjXjXxXbXmX",
"cXbXbXxXgXjXcXH.g.9X8X9X<X&.N.C.C.C.C.C.Z.z > 7.C.N.7 ^.cXjXjXNXnXbXcXjXjXjXcXnXnXlXjXjXxXbXbXxXjXgX",
"xXcXmXxXkXkXcX_.a.9X8X8X6X$.N.C.C.C.C.C.n.u y j.C.n.: !.cXlXlXNXmXcXcXNXlXkXcXcXmXNXkXkXcXcXmXxXjXkX",
"NXgXgXxXbXbXcXpX:.-X9X8X8X{.6.A.C.C.C.C.7.y j B.C.n.: G E.W.W.W.!.iXlXbXbXbXlXgXjXcXbXbXkXgXgXxXbXbX",
"cXxXxXvXxXxXxXcXeXq.5X8X8X9Xa.z z  .4.7.s 1 j 0.9. .X #.OXOXx.oXp.L pXvXxXxXcXxXvXxXxXxXcXxXxXxXxXxX",
"cXbXbXvXgXgXkXbXbXH.D 8X8X9X9X5X-Xi.k , & = > a a 1 O z.>Xp.$.x.%.p.;.uXgXgXmXbXbXlXgXgXcXbXbXxXgXgX",
"xXkXkXxXcXmXvXkXNX3X$.9X8X8X8X8X9X6XT.5 1 t a a 2 * r z.p.%.p.p.v.y.G.kXMXcXkXkXkXcXmXcXxXkXkXxXcXmX",
"xXgXjXxXbXmXcXgXlX(.;.9X9X8X8X8X8X6XD ; y 1 > * X X * : g oX>XoXp.S.jXmXmXmXlXjXjXcXmXmXkXjXjXxXbXmX",
"cXmXmXcXgXgXkXmXbXzXL XX5X,X<X5X].XXm D.+XN X * & & & * X g %.L.iXcXmXjXjXjXmXbXmXkXjXjXxXbXbXxXgXjX",
"xXmXcXxXkXkXxXmXmXcXeXq k k l l u y , :.bXpXc * = & & , ; X 8 iXbXcXcXNXlXkXcXcXcXNXkXkXvXcXmXxXkXkX",
"NXgXgXxXbXbXcXgXgXlXlXc , y y 1 1 y , b pXlXwXc 4 ; & ; ; u 6 qXjXgXjXbXbXbXjXgXjXcXbXbXkXgXgXvXbXbX",
"vXvXvXvXxXxXvXvXxXxXxXH.#.=.=.%.=.=.m 3XvXvXxXhXS.#.u.u.l.x.p.S.xXxXxXxXxXxXcXxXcXxXxXxXxXvXvXxXxXxX",
"cXbXbXvXgXgXNXbXbXbX_.w.1X1X>X1X1XoXP xXbXbXxXjX!.%.OXOXOXOXc.S dXbXmXjXgXgXnXbXbXkXgXgXcXbXbXxXgXgX",
"xXlXkXvXcXcXvXNXxXwXG T..X*X&X&X%X;.+XvXkXlXvXnX!.L L.s.L.L.P.P !.xXkXcXmXcXkXlXkXvXcXmXxXkXkXvXmXcX",
"xXjXjXxXmXmXcXlXwXJ.hXzXpXuXyXuXS.G.cXNXgXjXvXbXS.I.qXqXqXrXqXG.S.kXkXmXbXmXjXjXjXcXbXmXxXgXjXxXbXmX",
"cXnXnXvXjXjXkXiXB K.#X@X@X#X$XP.,.hXlXcXbXmXvX+Xp ^ X.X.X./ / ~ ^ K.pXlXjXjXmXnXbXkXgXjXvXbXbXxXgXjX",
"cXcXcXvXlXkXiX^ ` _ _ _ _ _ _ _ ( 2.eXcXcXmXfXV T R R ` ` R R ` R T p ^.kXkXcXcXcXNXkXkXxXmXcXxXkXkX",
"xXgXgXxXmXmXD./ [ [ [ ] ] ] ] ] [ ( n wXgXjXqXn +.+...........+...+.B M gXbXjXgXgXmXbXbXkXgXgXvXbXbX",
"xXvXvXvXxXjX!.!.!.I.H.H.H.I.I.I.G.I.G.rXvXvXjXeXwXwXwXwXwX).).).wXwXeXeXkXxXxXcXxXxXxXxXcXxXxXxXxXxX",
"cXbXbXvXgXgXNXmXcXxXhXpXpXNXvXvXhXhXgXcXbXbXxXgXgXcXbXbXmXjXjXkXbXbXbXlXgXjXmXbXbXjXgXgXcXbXbXxXgXgX"
};
