/* XPM */
static char *_58fcbeebd8f4a4eee5ae78cbc71e21fe28vSeQbBtSx8i5C[] = {
/* columns rows colors chars-per-pixel */
"32 40 236 2 ",
"   c #3E0000",
".  c #550303",
"X  c #6C0201",
"o  c #650603",
"O  c #790906",
"+  c #74120C",
"@  c #8C0100",
"#  c #840400",
"$  c #950A02",
"%  c #950504",
"&  c #951203",
"*  c #9D1511",
"=  c #AB0C00",
"-  c #A30B02",
";  c #A81805",
":  c #B21B02",
">  c #A21914",
",  c #BE2A0E",
"<  c #AE2A17",
"1  c #B72517",
"2  c #B0361E",
"3  c #913227",
"4  c #A6352A",
"5  c #C82C19",
"6  c #D23113",
"7  c #E13D1F",
"8  c #C6003E",
"9  c #D63922",
"0  c #C33023",
"q  c #9E4038",
"w  c #B74438",
"e  c #A9413F",
"r  c #B27D3D",
"t  c #D9412B",
"y  c #D04835",
"u  c #E94C32",
"i  c #CA0243",
"p  c #CC0C4B",
"a  c #CD1A53",
"s  c #CF285C",
"d  c #D1235D",
"f  c #D52862",
"g  c #D5376A",
"h  c #DA3E73",
"j  c #CF2F60",
"k  c #9A4A47",
"l  c #B1554E",
"z  c #93624D",
"x  c #A77A57",
"c  c #B46950",
"v  c #9A6969",
"b  c #B97874",
"n  c #DA6354",
"m  c #D9624F",
"M  c #F6624A",
"N  c #DC447A",
"B  c #DE4A7D",
"V  c #D64A75",
"C  c #D9537E",
"Z  c #E1497F",
"A  c #CE7070",
"S  c #ED7968",
"D  c #5A9517",
"F  c #5D9427",
"G  c #669C2B",
"H  c #6F812F",
"J  c #6CA325",
"K  c #77AA29",
"L  c #6AA332",
"P  c #77A938",
"I  c #69A817",
"U  c #78A652",
"Y  c #97983A",
"T  c #87B72A",
"R  c #87B636",
"E  c #91BD36",
"W  c #98A124",
"Q  c #EE952B",
"!  c #98C232",
"~  c #A5CD36",
"^  c #B8DE35",
"/  c #ACD23E",
"(  c #AB805B",
")  c #86B345",
"_  c #90BB42",
"`  c #AD8767",
"'  c #B18A6C",
"]  c #B49576",
"[  c #B98D71",
"{  c #9BBF69",
"}  c #FEBB4D",
"|  c #FEBE53",
" . c #FAB658",
".. c #F3A649",
"X. c #C19D7C",
"o. c #FCBF64",
"O. c #ECB071",
"+. c #98C448",
"@. c #A4CA49",
"#. c #B8DA48",
"$. c #B8DF51",
"%. c #ACCF54",
"&. c #B2D263",
"*. c #C2DE48",
"=. c #FFC45C",
"-. c #FFCB5D",
";. c #FFC054",
":. c #FFD15A",
">. c #C4E34A",
",. c #CAE65A",
"<. c #FFCA64",
"1. c #FFCA6C",
"2. c #FCC167",
"3. c #FFD365",
"4. c #FFD36A",
"5. c #FFDD6E",
"6. c #FFCC74",
"7. c #FDCA79",
"8. c #FFD374",
"9. c #FFDC73",
"0. c #FFD57D",
"q. c #FFDB7B",
"w. c #CBE765",
"e. c #D4EA78",
"r. c #D1F669",
"t. c #FEE378",
"y. c #C7C56D",
"u. c #DD5885",
"i. c #DC4C80",
"p. c #E44E85",
"a. c #E45789",
"s. c #E95A90",
"d. c #DF6D91",
"f. c #DE6488",
"g. c #E96595",
"h. c #E86A99",
"j. c #E17295",
"k. c #E5749B",
"l. c #E8769E",
"z. c #ED73A1",
"x. c #E47BA3",
"c. c #E97AA6",
"v. c #F27AA9",
"b. c #F264A0",
"n. c #BB9C83",
"m. c #BA9797",
"M. c #BFA88E",
"N. c #B8A191",
"B. c #CC928C",
"V. c #C5AF9E",
"C. c #DA87AA",
"Z. c #E683A4",
"A. c #E983A6",
"S. c #E889AB",
"D. c #F285AE",
"F. c #ED8CB2",
"G. c #E987B1",
"H. c #F487B6",
"J. c #EF9DBA",
"K. c #EB99B4",
"L. c #F598BD",
"P. c #D4ABAA",
"I. c #CEB7A8",
"U. c #D2BEAE",
"Y. c #D8B8B9",
"T. c #CCB7B0",
"R. c #FEB8A7",
"E. c #EDA3BC",
"W. c #EBA7BF",
"Q. c #F6A4BE",
"!. c #E0ADAB",
"~. c #9CC481",
"^. c #ADC98F",
"/. c #BBCFA6",
"(. c #FFDE84",
"). c #FEDA87",
"_. c #FFC498",
"`. c #FAD895",
"'. c #F3C98E",
"]. c #D8ED87",
"[. c #DEF197",
"{. c #D3E692",
"}. c #FFE383",
"|. c #FFE889",
" X c #FFEA93",
".X c #FEE698",
"XX c #D3C5B8",
"oX c #FCDDA9",
"OX c #E9C2BC",
"+X c #F2D5B5",
"@X c #F0CEA3",
"#X c #FAE6A6",
"$X c #FFF2B7",
"%X c #E3F2A9",
"&X c #F89BC3",
"*X c #EEACC2",
"=X c #F7A6C7",
"-X c #E9B9C7",
";X c #F2B4CA",
":X c #F6BCCB",
">X c #F5BCD2",
",X c #FBB7D4",
"<X c #FCAED0",
"1X c #D9C9C2",
"2X c #DBD2CB",
"3X c #F4C3D5",
"4X c #F7CCDB",
"5X c #F9CCDD",
"6X c #F9C4DA",
"7X c #E5D6D8",
"8X c #E9D4CA",
"9X c #DAE3CE",
"0X c #F6E8C8",
"qX c #E3E3DE",
"wX c #ECE9DC",
"eX c #F5F0D0",
"rX c #FACEE0",
"tX c #FBD5E4",
"yX c #F7DCE8",
"uX c #E8DBE0",
"iX c #EBE6E6",
"pX c None",
"aX c #E6E8E2",
"sX c #F5E3EB",
"dX c #EDF0EE",
"fX c #EEF6E5",
"gX c #EEEEF3",
"hX c #EEF2F3",
"jX c #EDF3F9",
"kX c #EFF9F8",
"lX c None",
"zX c #F4F5F9",
"xX c #F4FCFD",
"cX c #F9FDFF",
"vX c #F6F5FA",
"bX c #FBF2EA",
/* pixels */
"pXpXpXpXpXpXpXlXpXhXpXpXpXlXpXsXrX,X<X<X,X,X3X7XlXlXpXpXpXgXpXpX",
"pXpXhXpXpXpXpXpXpXpXpXpXpXpX5X=XH.z.h.g.g.z.L.=XJ.iXlXpXpXpXpXpX",
"lXpXpXpXpXlXpXpXhXpXpXhXsX,XH.J.l.A.=XW.J.l.Z g.&XG.uXkXpXpXpXlX",
"pXpXpXpXpXdXpXpXpXpXpXpX,Xz.p.W.tX5X6X>X>X6X3Xd.B &Xc.iXlXpXpXpX",
"lXpXpXpXpXpXpXlXpXpXpX6Xv.N :X5XL.>XrXrX4X:XJ.rXl.i.&XC.lXdXpXdX",
"pXpXpXpXpXpXpXpXpXhXsX&XN ;X:XF.yX5X<X&XF.=X4XA.6Xu.z.c.-XkXpXpX",
"pXpXpXgXpXpXpXpXpXpXtXg.x.3Xc.yXL.&XtXtX6Xl.D.3Xl.-Xh L.S.kXpXpX",
"dXpXpXpXgXgXgXlXjXgX,Xp.;Xk.3XF.D.sX<XL.:XtXa.;Xl.E.C D.x.pXpXpX",
"pXpXlXpXeX.X.XoX#X0X=Xu.*Xk.3Xa.4XL.l.c.g.>XA.S.A.A.d.h.c.uXlXgX",
"pXlXpX#X|.}.t.9.-.1.L.u.E.Z.E.a.4Xg.;XF.N 3Xh.K.j.j.j.h.c.7XhXpX",
"hXwXq.}. Xt.t.q.(.).Q.B E.x.J.B 4Xp.E.3X;X>XN 4Xg x.d.z.c.7XhXpX",
"dX#X|.$XbX$X|.}.4.:.:Xi.J.j.-Xg *XE.N k.l.N *XS.i E.i.D.x.pXpXpX",
"0Xt.t.#XeX Xt.9.(.q._.b.j.S.E.d.f ;X:XS.S.:XW.d g *XN H.C.xXpXpX",
"`.t.|.|. X X|.(.5.-.0.=XV W.u.>XN p C Z.x.g j j.;XV H.A y.fXgXpX",
"|.9.9.#X|.5.5.9.0.).-._.v.u.K.i.3Xu.p 8 i a d.3XC s.G.r r.e.wXhX",
"8.0.(.#X X}.}.q.4.=.1.1.R.&XV i g W.*XE.*X-XS.s u.&Xc ].%Xe.w.dX",
").9.4.3.3.3.3.1.8.0.1.} 2.R.H.p.p 8 s g j a j v.&Xc *.[.eX[.,.{.",
"`.<.0.0.).0.0.8.<.;.;.7. ...sX,XQ.v.s.p.b.F.&XB.Y ^ ,.e.].e.>.w.",
"wX1.<.<.-.=.=.=.1.6.oXo.Q +XhXpXbXY.!.Y.] ] W T #.#.^ *.>.>.*.#.",
"jXoX=.6.6.6.6.1. .} 6.o.O.dXpXpXvXV.n.~.I I +.+.E ~ #.*.>.#.#.%.",
"gXpX'.} ;.;.| | o.o.....wXpXpXpXvXn.I.^.D ) K T @.@.~ @.{.#.~ %.",
"pXpXlX0X7.2. . ...Q O.iXlXpXpXpXlX] T.iXG D ) ) T ! ! @.%.%.! ^.",
"lXpXpXgXpX8X@X@X+X] m.kXiXdXpXdXpX` U.cXM.G G J R _ E E E R @.aX",
"pXpXpXgXpXhXjXjXcX2X( 7XlXpXpXdXiX` 2XvXaXU L L J J K T K R 9XvX",
"pXpXpXpXlXpXpXpXpXpX' V.vXiXdXlX7X( qXdXkXaXH F G L J P { 9XlXpX",
"pXpXpXpXpXpXpXpXpXlXU.' hXxXiXlX1X` iXxXxXM.B.qX/.^.XX9XxXhXpXpX",
"pXpXgXpXpXpXpXpXpXgXaXx B.OXiXcXXX] hXP.A 2 2XcXvXvXvXlXpXpXpXpX",
"pXpXpXpXpXpXpXpXpXpXlXq n 6 < Y.I.` w - 7 , XXkXpXiXpXpXpXpXpXpX",
"pXpXpXpXpXpXpXpXpXhXaX4 u 5 @ # ` 3 $ ; 9 6 B.xXiXpXpXpXpXpXpXpX",
"pXpXpXpXdXpXpXpXiXxXY.< u : $ X 2 # o $ , u y kXdXpXpXgXpXpXpXpX",
"lXpXpXpXpXpXdXpXpXxXb - 9 & X O : .   O & > q iXhXpXpXpXpXpXpXdX",
"pXpXpXpXlXpXpXpXiXjX1Xm.c $ O o O + O y t b jXpXpXpXpXpXpXpXpXpX",
"pXpXpXpXpXpXpXpXpXpXcXP.& : : X z [ 5 u 0 * B.jXgXgXpXpXpXpXpXpX",
"pXpXpXpXpXpXpXpXiXzXY.; % ; ; l ` ` n 1 * @ # 1XxXiXpXpXpXpXpXpX",
"pXpXpXpXpXpXpXpXkX7Xu y > @ 4 ] x N.8X% @ - $ 3 hXpXpXpXpXpXpXpX",
"pXpXpXpXpXpXpXpXhXA n M 9 l XXx x 2XxXb % : : o v cXpXpXpXpXpXdX",
"pXpXpXpXpXpXpXhXiXgX7X5 S gXpXx n.xXiXhXw = < k . m.lXpXpXpXpXpX",
"pXpXpXpXpXpXdXpXpXcXP.4 pXpXlXXX1XgXpXkX8X- 4 cX7XV.iXpXpXpXpXpX",
"pXpXpXpXpXpXpXpXpXlX2X7XlXpXpXlXhXpXpXiXcXB.4 cXgXzXpXpXpXpXpXhX",
"iXhXpXpXgXpXpXpXpXpXhXlXpXpXdXpXpXpXpXpXpXiXP.gXgXpXpXpXpXpXhXiX"
};
