/* XPM */
static char *_376841694d74d25dd52553263904fdb1qIDxMVxgdSXg6KT[] = {
/* columns rows colors chars-per-pixel */
"46 50 215 2 ",
"   c #070707",
".  c #131313",
"X  c #1A1A1B",
"o  c #171719",
"O  c #101110",
"+  c #241F1C",
"@  c #21221B",
"#  c #2A301C",
"$  c #35351A",
"%  c #1F1E20",
"&  c #063835",
"*  c #1D3537",
"=  c #242423",
"-  c #282625",
";  c #2C2D23",
":  c #272629",
">  c #2C2C2D",
",  c #312E22",
"<  c #3D3B2B",
"1  c #2E2D31",
"2  c #2F3031",
"3  c #333333",
"4  c #393938",
"5  c #2B302D",
"6  c #403F25",
"7  c #3F4227",
"8  c #3E4C34",
"9  c #4A4D1E",
"0  c #43442E",
"q  c #474928",
"w  c #53552C",
"e  c #555A2B",
"r  c #5C5D2C",
"t  c #555926",
"y  c #484A34",
"u  c #4F5435",
"i  c #4F5238",
"p  c #545434",
"a  c #5B5C33",
"s  c #5C5E3B",
"d  c #555832",
"f  c #504E38",
"g  c #605E36",
"h  c #5E622C",
"j  c #5F6232",
"k  c #6B6C2F",
"l  c #64642D",
"z  c #626333",
"x  c #6A6C34",
"c  c #64653A",
"v  c #6C6D3A",
"b  c #656935",
"n  c #6F713B",
"m  c #737534",
"M  c #73743A",
"N  c #797B3E",
"B  c #777B3C",
"V  c #073C47",
"C  c #153A46",
"Z  c #04454A",
"A  c #164248",
"S  c #0A4B54",
"D  c #154958",
"F  c #0A5357",
"G  c #13535D",
"H  c #18535F",
"J  c #2B474D",
"K  c #304C51",
"L  c #34534A",
"P  c #1B566A",
"I  c #3B5F65",
"U  c #215860",
"Y  c #2D647D",
"T  c gray28",
"R  c #4E5043",
"E  c #5B5B42",
"W  c #55564A",
"Q  c #575855",
"!  c #625F40",
"~  c #605E58",
"^  c #666A4B",
"/  c #696A4A",
"(  c #767541",
")  c #797941",
"_  c #71764C",
"`  c #6D6D54",
"'  c #656752",
"]  c #747453",
"[  c #78785B",
"{  c #526C69",
"}  c #696C69",
"|  c #7A7967",
" . c #757575",
".. c #7B7C7A",
"X. c #7F8063",
"o. c #85865F",
"O. c #858469",
"+. c #878878",
"@. c #929576",
"#. c #297C9C",
"$. c #257795",
"%. c #367E98",
"&. c #256F89",
"*. c #4B7D85",
"=. c #6A7D82",
"-. c #36859A",
";. c #1F89A8",
":. c #2687A8",
">. c #338AA9",
",. c #2C9BBD",
"<. c #2995BA",
"1. c #3197B4",
"2. c #2A8DB0",
"3. c #488399",
"4. c #758689",
"5. c #6597A7",
"6. c #7E9DA3",
"7. c #1C9AC3",
"8. c #2C9CC3",
"9. c #349DC5",
"0. c #2BA2C4",
"q. c #2BA2C9",
"w. c #25A1C8",
"e. c #32A4CB",
"r. c #31A5C9",
"t. c #2DABD5",
"y. c #2DB5DC",
"u. c #35B5DA",
"i. c #33ADDB",
"p. c #2AB4E3",
"a. c #28B7E1",
"s. c #37BCE9",
"d. c #38C2EE",
"f. c #3ACCFA",
"g. c #38C9F8",
"h. c #31CDF6",
"j. c #43D1FC",
"k. c #8B8C85",
"l. c #8B8A89",
"z. c #979789",
"x. c #9F9C90",
"c. c #9B9B9B",
"v. c #959496",
"b. c #87938C",
"n. c #A19E8F",
"m. c #A19E96",
"M. c #A5A69B",
"N. c #879DA8",
"B. c #92ADB6",
"V. c #9AACB9",
"C. c #96B2BB",
"Z. c #8BA8AB",
"A. c #A9AAA7",
"S. c #B9B7AA",
"D. c #A1AAB3",
"F. c #ABB4B8",
"G. c #BCBCBA",
"H. c #B6B7B5",
"J. c #AFAEA8",
"K. c #C2BEB9",
"L. c #C8C8BA",
"P. c #9AB7C0",
"I. c #B8BEC6",
"U. c #B7C1C9",
"Y. c #BAC5CB",
"T. c #C5C3C4",
"R. c #C6C9C7",
"E. c #CCCCCB",
"W. c #C7C4CA",
"Q. c #D3D3D3",
"!. c #DCDCDC",
"~. c #D8D8D7",
"^. c #D2D6D0",
"/. c #E3DBDD",
"(. c #DFE1DD",
"). c #E5E3DF",
"_. c #DEDAE1",
"`. c #E0DFE0",
"'. c #E3E3E3",
"]. c #E8E6EB",
"[. c #EDECEC",
"{. c #EBE7E5",
"}. c #EEF1EE",
"|. c #F4F4EE",
" X c #EFEEF2",
".X c #F1EFF2",
"XX c #EFF2F2",
"oX c #F1F1F1",
"OX c gray94",
"+X c gray95",
"@X c #F3F3F3",
"#X c #F4F4F4",
"$X c gray96",
"%X c #F4F4F5",
"&X c #F6F6F6",
"*X c gray97",
"=X c #F6F7F6",
"-X c #F5F5F7",
";X c #F5F5F5",
":X c #F9F6F4",
">X c #F6F8F7",
",X c #FAFAF6",
"<X c #F5F6F9",
"1X c #F9F7F8",
"2X c #F6FBFC",
"3X c #F8F8F8",
"4X c #F9F9F9",
"5X c gray98",
"6X c #FBFBFB",
"7X c #FBFBF8",
"8X c white",
"9X c #FEFEFE",
"0X c #FCFCFC",
"qX c #FAFAFA",
"wX c #F6EFED",
/* pixels */
"0XoX0XoX5X#X5X#X#X5XoX5XoX0XoX0XoX0XoX5X%X3X#X#X5XoX*X[.6XoX6XoX0XoX5XoX5X#X*X5X#X5XoX6XoX0X",
"oX5XoX5XoX5X#X#X5X#X5X#X5XoX0XoX0XoX5XoX5X#X5X*X*X0X0X0X#X5X X5XoX5X#X5X#X#X#X@X5XoX5XoX5XoX",
"5XoX5XoX5X#X5X#X#X5X%X5XoX5XoX5XoX5XoX5X#X'. .4 T Q  .H.@X5X0X0X5XoX5X#X5X#X#X5XoX5XoX5X@X6X",
"oX5X#X5XoX5X#X#X#X%X3X#X5XoX5XoX5XoX5X#X0X[.G.Q O o . . 4 v...E.0X0X@X*X#X5X*X#X5XoX5X#X5XoX",
"5XoX5X#X5X#X#X#X#X5X#X5XoX5X@X3X#X5X#X#Xc.3 X > % = > 2 % X X o c.A.@X1X5X#X#X*X@X5X@X5XoX5X",
"oX5X#X#X#X#X#X5X#X*X#X#X*X@X3X@X#XoX0XE.= O - : > > > > 1 1 = X : = } 0X#X#X*X#X#XoX*X#X5X@X",
"#X#X5X#X#X5X5X#X*X*X#X#X#X5X#X5X#X0X[.T = 2 1 > 1 > 1 1 1 2 1 > % X O A.0X#X1X*X*X#X#X*X#X*X",
"#X5X#X5X#X#X5X#X#X5X*X5X#X#X5X#X#X0XQ . 3 1 > 1 1 > 1 1 > > > > > = X T 0X#X#X*X#X5X#X5X#X*X",
"#X5X#X5X#X#X#X#X#X#X5X#X*X#X5XoX0XA.o 3 % - , - = 1 - - > 1 1 > 1 > X % ^.6X%X#X*X#X*X#X*X#X",
"5X#X5XoX5X#X5X5X5X#X#X5X#X5X@X#X0X .v.T ~ ! p , p % 0 0 @ : 1 > > 1 > O G.0X@X*X#X*X#X5XoX5X",
"oX5XoX5XoX5X#X#X#XoX5XoX*X@X5X#X5X(.#XJ.+.s g c e < o.$ 0 # : 2 > > > X Q !.0X%X5X#X*X#X5X#X",
"5X#X5XoX5X#X5X5X#X5X#X5X@X6XoX0X#X0XJ./ g g w b | {.,XT./ y X : 1 > 1 > o X G.0XoX5X#X5XoX5X",
"oX5XoX5XoX5X#X#X5X#X5XoX5XoX5X[.0XE.a m ) N b f 0X0X0X0X^.s # X 1 1 1 1 2 X 4 %X5X#X5XoX5XOX",
"0XoX0XoX5XoX5X#X#X5X#X5XoX0XoX5X0Xx.h x x k k O.A.`.0X0X0X[ r @ 1 > > > % % . E.0X#XoX0XoX0X",
"oX0XoX0XoX5X#X#X5X#X5X#X5XoX5XoX0Xz./ O.| ] ^ O.Q.[.0X0X0XO.h < : 1 1 > 2 4 } !.0XoX5XoX0XoX",
"5XoX5XoX5X#X5X#XoX5X#X#XoX0XoX#X0XH.Q.0X0XT.l.X.0X0X0X0X5X^ m p : : 1 > 1  .{.0X%X5XoX5XoX0X",
"oX5X#X5X#X#X#X#X*X#X*X#X3XoX*X*X[.` / ~.0XQ.} 0 E.0X0X0XJ.w ) 0 : 0 ; 4 v.F.0XoX3X%X5X#X5XoX",
"0XoX5XoX5X#X5X#X#X5X#X5X%X3X@X0X| k k w E y j l y J.E.z.a m M z b n b E [.{.3X*X#X5X#X3XoX0X",
"@X*X#X5X#X*X*X5X*X#X1X#X*XXX0XM.r N v s 0 w v B t q t j M n M ) v r z j K.0X%X#X5X#X#X#X*X#X",
"5X#X5X#X#X#X#X*X#X5X*X*X%X0X~.j N M ) p 7 @ < ) M c b M l M M r z k l w ^.0X#X*X#X#X#X5X#X*X",
"#X#X*X*X5X#X*X5X*X#X#X5X%X0X+.t b l v x v e v m M ) x v n M z J.M.| X.L.0X#X*X%X*X#X#X*X#X*X",
"#X*X*X#X#X#X#X#X#X*X5X#X#X*XQ.A.z.x.' | ] / c s g b v M b x [ 0X0X5X0X0X#X*X%X*X*X#X*X#X#X*X",
"5X#X5X#X*X#X#X5X#X5X#X#X%X#X0XQ.E._.v.'.`.v.R.K.+.f w b ( l x.0XoX#X#X#X5X#X#X3X#X#X#X3X#X5X",
"oX5XoX5XoX5X*X#X*X#X#X5X1X@X0X/.R.E.T.G.U.L.H.J..XM.q q ( z K.0XOX5X#X*X*X#X*X*X5X#X5X#X5X%X",
"6XoX6XoX5X@X*X#X%X5X6X].[.*X|.0X0X0X0X0X0X0XwX:X0X0X+.r a $ b.,X3X%X3X%X3X%X#X3X@X5XoX6XoX6X",
"oX6XoX5X@X5X#X#X*X*Xz.' 0X0X:XI.I.P.P.B.C.B.C.C.P.Y.D.p 8 -.-.wX%X3X%X3X#X#X#X#X5X@X5XoX6XoX",
"6XoX5XoX5X#X#X5X.X%XE t A.x./ L e.p.y.p.a.p.p.a.a.y.y.i.-.i.-./.0X@X5X#X5X*X*X3X@X5XoX6XoX0X",
"oX5XoX5X#X#X0X).' [ E q a z m w 1.j.f.f.f.f.g.d.s.s.i.w.$.q.%./.3X*XoX5X#X#X*X#X5XoX5XoX5XoX",
"6X.X6XoX5X#X6X| t p e m m B t K.Y.:.1.0.q.q.q.0.,.>.:.$.>.r.:.T.0XoX5X@X5X*X*X*X#X5XoX5XoX6X",
"oX6X@X6XoX5X|...' c.d E a r +.0XD.Y 1.<.0.,.2.#.&.>.,.u.u.8.:.U.0X1X#X5X#X*X#X#X*X@X5X@X6XoX",
"5X@X5X@X1X@X5X6X6XS.q +./ a !.z.d U #.9.#.$.#.$.2.f.g.g.t.8.;.V.0XoX5X#X1X#X*X5X#X5X@X5XoX5X",
"@X*X@X*X@X*X<X@X0XA.9 Q y j ~ l k ..=.D >.1.0.$.t.f.d.u.q.8.;.N.qX<X%X3X*X#X*X#X*X#X*XoX5XoX",
"5X#X5X#X#X#X5X*X*X[.H.M.Q $ 0 k t Q.0XN.:.7.-.=.u.g.s.9.w.,.<.5.qX@X1X%X1X#X#X5XoX#X#X5X#X5X",
"#X#X#X#X#X5X#X#X#X0XM.t i b w k ] [.3X0XD.3.`.P.h.g.s.8.8.,.<.3.#X1X#X#X5X#X3X#X#X5X5X#X#X#X",
"#X*X*X*X#X#X#X#X,X%X' e  .t | e ` #X0X%X,X|.,X5.2.f.i.2.8.9.8.%.'.qX:X1X#X*X#X#X#X#X#X#X#X#X",
"5X#X5X#X*X#X5X#X*XoXk.x.T.q | [ q R R.0X|.>X{.K A >.H P 1.&.2.>.Q.qX*X#X*X#X5X*X#X5X#X5X#X5X",
"@X5X#X5X@X5X#X5X#X#X0X0X:X' E ~.L.x.'.3X#X%X0X4.V D G D D A H S F.0XXX1X#X*X5X#X*X%X5X#X5X#X",
"5XoX5XoX*X@X*X*X#X,X#X%X#X].oX0X0X0X*X*X|.#X0X].J Z G G F G & } ].%X1X#X5X#X#X*X#X5XoX5X#X5X",
"oX5X@X5X@X5X#X*X5X#X5X#X5X#X0XoX#XoX5X#X5X#X#X0X!.{ S G C A 4.0X#X5X#X5X#X#X*X#X5XoX5XoX5XoX",
"0XoX5XoX5X@X#X#X#X5X#X1XoXqX.XqXoX5XoX*X#X,X#XXX0XY.S S J _.0XoX5XoX1X#X5X#X#X5X#X5XoX5XoX0X",
"oX5X[.5XoX5X#X3X#X#X#X#X5XoX5XoX5XoX5XoX5XoX#X#X0XZ.Z D Z H.0X#XoX5X#X#X#X5X*X#X*XoX5XOX5XoX",
"6XoX6XoX5X@X5X#X#X5X#X5XoX0XoX5XoX0XoX5XoX5X#X%X0X4.Z Z F I ,XoX5XoX5X#X5X#X#X5XoX5XoX5XOX0X",
"oX5XoX5XoX3X#X#X5X%X*XoX5XoXqXoX5XoX5X#X5XoX,XXX0X+.& { A L R.0XOX5XoX5X#X#X#X#X5XoX5XoX5XoX",
"6XoX5XoX5X%X3X*X#X5X#X5XoX0XoX5X#X5XoX5X%X0X#X0X0X{ V N.M.^ [.0X5XoX5X#X5X#X#X5X#X5XoX5XoX5X",
"oX5X@X5X@X*X#X#X5X#X*X@X5XoX5XoX5XoX5X%X5Xl.4 k.~.U S C.0XO._ '.#X,XoX5X#X5X#X#X#XoX5XoX5XoX",
"5X@X5X@X5X#X*X*X#X#X#X5X%X5X#X5X#X5XoX0XG.  O . 5 * A { @.j c S.0X#X,X#X#X5X5X#X#X5X#X5XoX5X",
"#X*X@X*X#X3X#X5X*X*X5X#X5X#X,X#X*X#X#X5X~. .T > O o O # / L.*X0X@X,X%X#X#X#X5X#X5X#X5X#X*X#X",
"5X#X*X*X*X#X3X#X#X5X#X1X#X#X*X#X3X3X3X*X0X0X3X/.T...R b.0X6X3X#X#X#X5X#X*X5X#X5X#X#X#X5X#X5X",
"#X*X#X#X3X*X#X*X#X5X@X*X#X*X#X*X#X*X#X#X#XoX*X6X0X0X0X0X1X#X#X#X*X#X*X@X*X*X#X*X#X*X#X#X*X*X",
"@X5XoX5X#X*X#X*X5X#X5X@X5X#X5X#X5X#X5X#X5X#X*X#XoX#X#X5X#X5X#X5X@X5X@X5X#X*X#X*X5X#X5X@X5X@X"
};
