/* XPM */
static char *be9c5461ca714c42cd11c410c2ee1727FEZSxWXOf4V9gopx[] = {
/* columns rows colors chars-per-pixel */
"50 50 158 2 ",
"   c #D7D8DC",
".  c #DADADE",
"X  c #DDDEE2",
"o  c #DFE0E4",
"O  c #E2E3E6",
"+  c #E5E6EA",
"@  c #E7E8EC",
"#  c #EAE9EF",
"$  c #EAE9EE",
"%  c #E9EAEE",
"&  c #E9EAEF",
"*  c #E9EBEF",
"=  c #EAEBEE",
"-  c #EAEAEF",
";  c #EBEAEF",
":  c #EAEBEF",
">  c #EBEBEF",
",  c #E9E9ED",
"<  c #EAECEE",
"1  c #EBECEE",
"2  c #EAECEF",
"3  c #EBECEF",
"4  c #ECECED",
"5  c #ECECEE",
"6  c #EDEDEE",
"7  c #ECECEF",
"8  c #ECEDEF",
"9  c #EDEDEF",
"0  c #EDEEEF",
"q  c #EEEEEF",
"w  c #EEEFEF",
"e  c #E9EAED",
"r  c #EBEAF0",
"t  c #EAEBF0",
"y  c #EAECF0",
"u  c #EBECF0",
"i  c #ECEDF0",
"p  c #EDEDF0",
"a  c #ECEDF1",
"s  c #ECEEF0",
"d  c #EDEEF0",
"f  c #EDEEF1",
"g  c #EEEEF0",
"h  c #EEEEF1",
"j  c #EEEFF1",
"k  c #EFEFF1",
"l  c #EDEEF2",
"z  c #EEEFF2",
"x  c #EFEFF2",
"c  c #EEEFF3",
"v  c #ECEDF1",
"b  c #EFF0F1",
"n  c #EFF0F2",
"m  c #EFF0F3",
"M  c #EFF0F4",
"N  c #EFF0F3",
"B  c #F0F0F1",
"V  c #F0F1F1",
"C  c #F0F0F2",
"Z  c #F1F1F2",
"A  c #F0F1F3",
"S  c #F1F1F3",
"D  c #F1F3F3",
"F  c #F2F5F3",
"G  c #F0F1F4",
"H  c #F1F0F5",
"J  c #F0F1F5",
"K  c #F1F1F5",
"L  c #F1F2F4",
"P  c #F1F2F5",
"I  c #F1F3F5",
"U  c #F2F2F4",
"Y  c #F3F3F4",
"T  c #F2F2F5",
"R  c #F2F3F5",
"E  c #F3F3F5",
"W  c #F1F2F6",
"Q  c #F1F3F7",
"!  c #F2F3F6",
"~  c #F2F3F7",
"^  c #F4F3F7",
"/  c #F3F4F4",
"(  c #F3F4F6",
")  c #F3F4F7",
"_  c #F4F4F4",
"`  c gray96",
"'  c #F6F5F5",
"]  c #F4F4F6",
"[  c #F4F5F6",
"{  c #F4F4F7",
"}  c #F4F5F7",
"|  c #F5F5F7",
" . c #F5F6F6",
".. c #F5F6F7",
"X. c #F7F7F6",
"o. c #F6F6F7",
"O. c #F2F3F5",
"+. c #F6F8F7",
"@. c #F6F8F7",
"#. c #F4F3F8",
"$. c #F3F4F8",
"%. c #F5F5F8",
"&. c #F4F5F9",
"*. c #F5F6F8",
"=. c #F5F6F9",
"-. c #F6F6F8",
";. c #F6F7F8",
":. c #F6F6F9",
">. c #F6F7F9",
",. c #F7F7F9",
"<. c #F6F5FA",
"1. c #F5F6FA",
"2. c #F6F7FA",
"3. c #F7F7FB",
"4. c #F5F6F9",
"5. c #F6F8F8",
"6. c #F7F9F8",
"7. c #F7F8F9",
"8. c #F7F8FA",
"9. c #F7F8FB",
"0. c #F7F8FC",
"q. c #F7F8FB",
"w. c #F8F8F8",
"e. c #F9F9F8",
"r. c #F9F9F9",
"t. c #F9FAF9",
"y. c #F8F8FA",
"u. c #F8F9FA",
"i. c #F8F8FB",
"p. c #F9F8FB",
"a. c #F8F9FB",
"s. c #F9F9FB",
"d. c #F9FAFA",
"f. c #F9FBFA",
"g. c #F9FAFB",
"h. c #F9FBFB",
"j. c gray98",
"k. c #FAFAFB",
"l. c #FAFBFB",
"z. c #FBFBFB",
"x. c #FAFCFB",
"c. c #FBFDFB",
"v. c #F9F9FC",
"b. c #F9FAFC",
"n. c #F9FAFD",
"m. c #FAFAFC",
"M. c #FAFBFC",
"N. c #FBFBFC",
"B. c #FAFBFD",
"V. c #FBFBFD",
"C. c #FAFBFE",
"Z. c #FAFDFC",
"A. c #FBFCFE",
"S. c gray99",
"D. c #FCFCFD",
"F. c #FCFDFD",
"G. c #FCFCFE",
"H. c #F9FAFC",
/* pixels */
"@ 1 4 , 4 O O @ , , q S ] y.z.z.' @ , q & , t t t t @ X @ @ X X . o @ , , , , , , & & , , X   X o @ ",
"@ + , w O . . + , , ] N.N.c.z.z.' @ , , , & @ O , t @ O & & , , O O 4 4 1 , X o + & , & , + X X X + ",
"O . O , X O o . @ S m.m.N.z.z.z.q , t , & & o   + , @ @ , , O , 9.4 @ , , +     o + , & & , & + o & ",
"+ O O , @ 1 + O t D m.A.N.y.y.y.q , , 1 & @ X X + @ X @ , , o O q @ 1 + o o X   X X o , & & & t & & ",
", , , + o @ , 1 , s m.m.m.m.x.@.@ @ , t s ,   X @ & + , , , @ O + + @ + . X X X   X + + o + o o & & ",
"& & , , O @ , 1 , t $.0.1.D D 1 q y.M , l O X X , , & & , t , t , + o O . . @ , X   + o X X X X , , ",
", + o X + , , a s , a s a , 4 @ q 1.s X X X X @ & , , & , & , O + , + @ X + , , X X & o X o + + & , ",
", o   X o a , a a t , , , , 4 @ @ 1 , O X O O @ & , & , & , + X O 1 @ q D V , , o + & + & & & & & & ",
", + X   X @ & + o , , , @ 4 @ 4 @ n U a @ @ O X + & , t , , @ X O , , , U s , , , , , t @ , , , , , ",
", & +   X , @ o o , * , 4 @ 4 @ @ $.A.s , @ X X O , t , , t , , t , t , , , t , , , @ , t , t t & & ",
"& & & + o & & + O @ @ @ @ @ @ @ @ 1 D q , , O O @ & , , , & & l t , t , t t , , @ 1 1 , t @ @ t , & ",
", , , + + & & @ 1 @ 4 1 S V @ , q @ 1 , @ , , @ & & t t t , & a t , , , , , @ , @ S 1.l @ @ O t & * ",
", & + o + & , , @ O 4 X.@.@.s 1 ] w @ 4 , , , + O , t @ , , & , , , , s l t , , @ D A.n @ , @ , , a ",
"& , o o o , , a O   O e.c.c.S ] A.1 4 @ , t + . X O o X , & t , s n U 1.m.#.t , 1 q U 1 , t t & & , ",
", & + o + & , M O   . @ q U E m.@.+ @ 4 @ + X     X   X @ , , n y.y.y.m.m.m.t , t , , , t , t @ , , ",
"& , & , & & o + X . . . . 4 U y.@ X @ @ + X X X X   X X , , q 9.S.y.A.y.m.#.t , , , t , , t @ & & , ",
", t , , , t X X O + + . O S r s o o , 4 @ . o O O X X O & , M A.U , S 6.q @ $ , , , t , , @ O @ & , ",
", , t , , t & , E z.4 . + S @ @ O O + , 1 @ @ @ , X   , , & s 0.O . O ] O . $ , , , t , t @ X + , & ",
"t , t t , , , t C S , . + @ , , 4 + @ 4 , , O o , X X , , , , U o X + U @ O , $ @ X O , t @ O @ * & ",
"t , t Q a & & , , , , O @ @ , t @ 4 4 @ , , O o , + + & t t , t , X & t 4 , , $ O   X O @ , t , t , ",
", t l $.0.U & , , , t r t , , , 4 @ 4 @ @ @ , , , t & , , , , , , + @ , , t , , @ X   X t t , t , , ",
", t $.U M 0.a @ , , , @ , , t , @ 4 @ 1 F + + , , , & & O X o & & t & , , , t t X X X O t , t , , a ",
", + + M , 1.#.t , t , O , t , , @ 1 4 w @.O o @ t , & & X X X o , , , , t , , t @ X @ t t , t @ , & ",
"@ , U M , M U , t , t , , t t t 1 @ @ 4 ] O o + t t @ @ @ & X X o , t t , & & , t t t t , , @ t , , ",
"@ @ 9.S , , , , , t t , t , t , , s C E 1.@ + & , , , o O & & + @ , & , t , , t , t , & & & @ + + , ",
"1 1 y.D 1 , , t t @ @ $ t , , , r p.N.p.1.t @ o @ @ , & & @ , t t , , & , & @ , a , & , , & o X X , ",
"@ 1 9.D , s M t t @ @ , , t , + , C C s 4 , X X o @ & t @ @ & , , , & & & + X X , , 1 a a a + X o , ",
"4 1 9.D 1 $.m.#.t , , , , , , , , @ 4 4 , , X X X O + O + & @ , t l , , , X   . , $.9.a + 0.M , & a ",
"@ 4 S 4 w y.S.1.t $ $ + , 4 @ , , ] X.q $ , + X X X o X X t , & , l @ , , + . + U S.q . , 0.c , & & ",
"4 @ @ , D x.m.U t , @ @ , @ 4 + q y.S.U $ # , , + @ o X X & t , O , , & , , s p.1.s + + , a & & , & ",
"@ 4 @ , S y.1.4 + , , @ , @ , q F y.y.S @ t , & & & X   X @ t l , t t , , a p.y.q 4 + X + , & , & & ",
"4 @ O O 4 H O + @ o O O O @ U 1.O q V @ , & & & + & + X X , , , , , , t , U z.' + o . O * + o + & , ",
", O . . , , X + c o + X X & 0.*   @ & , & * & + o & & , o @ @ @ w n 1 * @ n D 1 + . O ] 6.o   . & , ",
"+ . . X , & o o c , o + + & & X X c a & + , , o + & , & @ 4 @ + F @.@ * * * 1 n ] O @ S.x., . O , & ",
"@ O X O , & , + , & X o & + X X X o + + + , + @ , @ , & 4 + 4 + s n @ 1 * * 0 X.y.S S x.y.S + @ & , ",
"4 4 O @ , & , a @ & o o + + O X X X X X + Q + & , + , , @ o o 4 4 @ , 1 1 @ w t.y.y.y.x.x.U , 1 , & ",
"@ @ + @ * @ + , , , & + X X + o     o + , M , & , o + @ O o X O @ 1 @ O O @ 4 e.x.A.x.A.y.n , , , * ",
"4 4 @ * * 1 + , c a & , o X o + X X a M a & & & & & @ @ O X X O 4 @ o . . O 4 F @.@.F $.D a a , , a ",
"4 @ 4 * * 1 1 , M Q & , + o , & + + , & , , & , a * , , + O O + @ @       X @ @ n 1 , a & , , , , & ",
"4 @ 4 @ * @ , , & a , a & & & & & & , , , & & & , , , , w V 4 + 4 + . . . O 4 @ , , & @ , + X + & , ",
"& @ , & , t t , a a 1 , , t , , * , , & , & & & 1 , 1 1 D A.9.1 4 + O X + F 6.w 1 , a & & + X + , & ",
", o o , , , , a 1.D U q , , , t , , , , , , + + + , D 9.m.x.9.1 @ @ 0 + n @.w w n , & & & , + + & & ",
"& + o , & , , 1 0.m.0.D , a a 1 , , , a , o X X X + A.9.m.0.F @ 4 @ @ 4 4 O   X D 1 , , & & + o , , ",
", , a M & , 1 , #.m.y.y.] U D D n , , , + o o X   o 1 1 D 9.@ * 4 O + @ 4 .   O D 1 , t , & o X + & ",
"& , M 0.1 @ @ , s m.m.m.m.y.y.A.9.@ 1 a , + + + o + X X , a , , + o X O M @ . 4 1 , & & & , , + o @ ",
"& , + a 4 O o O a #.0.m.m.0.9.9.D , , , & , , t a , o X + & , , + o X + M , o 9., & & + , , & , o o ",
"& + o & @ O . O , , s M M s s a , & , , a t & , , , , @ , & & & @ + + @ & o o $.M & , X X + , , + + ",
", , + + 4 O O + , t , t , , , , t , t t M a & & , + & , , , + @ @ @ 0 0 , , X , * , O X o + & & , a ",
"& & X o , , , 1 , , 1 a & M M , , & , , & a , , , + , + X X X X X @ s @ 1 * * @ , o   X + , & & , & ",
"& , + , , & @ , , 1 , , a 0.$.a & , & , & , , & & & a +     X + + @ s @ * @ * 1 1 o X + , , , , & , "
};
