/* XPM */
static char *b44b0196f64441d2ddfb9b52711bca31PZ8r8v39hXRw1chY[] = {
/* columns rows colors chars-per-pixel */
"50 48 159 2 ",
"   c #D6D7DA",
".  c #D7D8DB",
"X  c #D9DADE",
"o  c #DFE1DF",
"O  c #DDDEE2",
"+  c #DFE0E3",
"@  c #E1E2E6",
"#  c #E5E6E9",
"$  c #E7E8EC",
"%  c #EAEBED",
"&  c #E9E8EE",
"*  c #E8E9EE",
"=  c #E9E9EE",
"-  c #E9E9EF",
";  c #EAE9EE",
":  c #EAE9EF",
">  c #E9EAEE",
",  c #E9EAEF",
"<  c #E9EBEF",
"1  c #EAEAEE",
"2  c #EAEBEE",
"3  c #EBEBEE",
"4  c #EAEAEF",
"5  c #EAEBEF",
"6  c #E8E9ED",
"7  c #ECEBEF",
"8  c #EBECED",
"9  c #EBECEE",
"0  c #EAECEF",
"q  c #EBECEF",
"w  c #ECECED",
"e  c gray93",
"r  c #ECECEE",
"t  c #ECEDEF",
"y  c #EDEDEF",
"u  c #EEEFEF",
"i  c #EFEFEF",
"p  c #E9EAED",
"a  c #EBEAF0",
"s  c #EAEBF0",
"d  c #EBECF0",
"f  c #ECEDF0",
"g  c #ECEDF1",
"h  c #EDEEF0",
"j  c #EDEEF1",
"k  c #EEEEF0",
"l  c #EEEFF1",
"z  c #EFEFF1",
"x  c #ECEDF2",
"c  c #EDEEF2",
"v  c #EEEFF2",
"b  c #EFEFF2",
"n  c #EFEEF3",
"m  c #EEEFF3",
"M  c #ECEDF1",
"N  c #EEF0F1",
"B  c #EFF0F1",
"V  c #EFF0F2",
"C  c #EFF0F3",
"Z  c #EFF1F3",
"A  c #EFF0F4",
"S  c #EFF1F5",
"D  c #EFF0F2",
"F  c #F0F0F2",
"G  c #F0F1F3",
"H  c #F1F1F3",
"J  c #F2F2F3",
"K  c #F0F1F4",
"L  c #F0F1F5",
"P  c #F1F2F4",
"I  c #F1F2F5",
"U  c #F2F2F4",
"Y  c #F2F3F4",
"T  c #F3F3F4",
"R  c #F2F2F5",
"E  c #F2F3F5",
"W  c #F3F3F5",
"Q  c #F1F2F6",
"!  c #F2F3F6",
"~  c #F2F3F7",
"^  c #F3F4F6",
"/  c #F4F5F5",
"(  c #F6F5F5",
")  c #F4F4F6",
"_  c #F4F5F7",
"`  c #F5F5F7",
"'  c #F6F6F6",
"]  c #F7F7F6",
"[  c #F6F6F7",
"{  c #F2F3F5",
"}  c #F8F8F7",
"|  c #F3F4F8",
" . c #F4F5F8",
".. c #F5F4F9",
"X. c #F4F5F9",
"o. c #F5F5F9",
"O. c #F5F6F8",
"+. c #F5F6F9",
"@. c #F6F6F8",
"#. c #F6F7F8",
"$. c #F7F7F8",
"%. c #F7F7F9",
"&. c #F6F7FA",
"*. c #F7F6FB",
"=. c #F6F7FB",
"-. c #F7F7FB",
";. c #F5F6F9",
":. c #F7F8FA",
">. c #F7F8FB",
",. c #F7F8FC",
"<. c #F7F9FA",
"1. c #F8F8F8",
"2. c #F8F9F8",
"3. c #F8F8F9",
"4. c #F8F9F9",
"5. c #F8FAF9",
"6. c #F9FBF9",
"7. c #FAFAF9",
"8. c #F8F8FA",
"9. c #F9F9FA",
"0. c #F8F8FB",
"q. c #F8F9FB",
"w. c #F9F9FB",
"e. c #F9FBFA",
"r. c #F9FAFB",
"t. c gray98",
"y. c #FAFBFB",
"u. c #FBFBFB",
"i. c #F9FCF9",
"p. c #F9FCFA",
"a. c #FBFCFB",
"s. c #FBFDFB",
"d. c #F8F9FC",
"f. c #F8F9FD",
"g. c #F9FAFC",
"h. c #F9FAFD",
"j. c #FAFAFC",
"k. c #FBFBFC",
"l. c #FBFBFD",
"z. c #F9FAFE",
"x. c #FAFBFE",
"c. c #FBFBFE",
"v. c #FAFCFC",
"b. c #FBFDFC",
"n. c #FBFCFD",
"m. c #FBFCFE",
"M. c #FBFCFF",
"N. c #FCFCFD",
"B. c #FCFDFD",
"V. c #FDFDFD",
"C. c #FCFCFE",
"Z. c #FDFCFE",
"A. c #FDFDFE",
"S. c #FCFDFF",
"D. c #FDFDFF",
"F. c #FDFEFE",
"G. c #FDFEFF",
"H. c #FEFEFF",
"J. c #FAFAFC",
/* pixels */
"$ 8 8 8 e @ @ 6 6 7 w H ( 6.l.t.( 6 & 6 * < s s s 8 * O # * + X   @ 8 8 * * * * * * * 8 8 X X O # * ",
"# # $ i #   O @ 6 6 @.l.j.6.t.t.( 7 6 6 * , * + * s * + 8 * 8 8 @ @ 8 6 8 * O X * * * * * # O X X # ",
"# X o $ X # +   # E j.j.j.6.6.t.w 6 s 6 , , +   # s # * 8 * + 8 b.* 8 8 s # X X + # * 8 s * < # + * ",
"# @ # $ # 8 # # 6 ~ b.b.l.j.l.9.w # 6 n * # O O # 8 X * 8 # + + 8 * 8 # + + X X X X O * * * , * < , ",
"* * * # O # s m 6 n j.j.j.j.b.] $ 8 6 6 A * X X * s * 8 * * 8 # # # * # X X O + X X # # O + O O , 8 ",
"s 8 * # # # * 6 6 * A ,.X.N N 8 n B.N * n + X + * * * * * * * * s # X @   + 8 6 O X $ O O + O O s * ",
"6 # O O # s * A A 6 6 s 6 6 8 $ 8 @.n X   X O * 8 * , * 8 * * + # 8 # # @ # 6 8 O O , # + # , * * * ",
"* O   X + s 8 s s 6 s 6 6 6 $ w $ # * # # * # # * * 8 * * s #   + s 8 n b.( 8 s # # , , , , , , 8 s ",
"* # + X O * * + + 8 8 * 8 $ 8 $ # ~ ,.N * * O O @ 8 * * 8 8 * + # 6 6 * s 6 6 6 8 6 6 s 6 6 6 s * * ",
"6 s * O X * < + + # 8 # $ 6 $ 8 # @.B.w # * O O # 8 8 * * * * A n # s 6 6 6 6 6 6 6 # 6 s s 6 6 * 8 ",
"* * 6 * @ 8 8 * # 8 8 # 6 6 $ 6 # $ N 8 8 $ # # * * * * * * * A s & 6 6 8 s 6 6 6 w E 6 s # @ s 8 * ",
"* 8 # @ * * * * 8 # 8 N ( T 6 $ J N # 8 $ 8 * * * * 8 s 8 , 8 * 6 s 6 & 6 6 6 * * ( B.E 6 # # s * s ",
"6 8 + O O s # * # X e V.6.B.H n b.n # 8 * 6 * O O # # @ , * * 8 6 6 s E =.m * 6 # E :.n 6 s 6 s * 8 ",
"* , # + # * * ~ @   X J j.6.H 6.6.6 8 $ 8 s # X X O O X * , * 8 T @.6.l.l.=.s 6 8 6 * * 6 s s 6 * , ",
"6 6 s * * 6 # s @   X X O $ ( B.N @ $ 8 # O O     O X O 6 6 6 :.l.l.l.t.B.,.s * , 8 6 6 6 6 s s * * ",
"s * 6 6 * s O     o @   X H z H o X # 8 #   O O O O X @ s * N B.9.E 6.l.( 7 s 6 * 6 * 8 s s # # 8 , ",
"6 6 s 6 s 6 6 # @.B.7 X $ T $ $ @ @ $ $ 6 $ $ 6 8 O X # 6 * n B.#   @ ( o X s 6 s s 6 s s # O @ * 8 ",
"s s 6 * 6 s s s E @.6 X # 7 6 6 $ $ $ e 6 6 @ @ 6 O O 6 s 6 s @.O + @ ( # @ 6 6 # # # s s 6 @ # * * ",
"6 6 s A 6 * s 6 # s 6 O $ $ 6 s $ e $ w 6 $ + + 6 # @ s 6 6 # s * X s n 6 7 6 6 O   X @ 6 # 6 6 8 , ",
"6 s n X.j.A # s s 6 6 w 6 6 6 s 8 $ % $ & 6 s 6 6 s 6 s s s s 6 * @ * 6 6 6 6 s s O X O s 6 s s * * ",
"* s ,.~ ~ j.s # 6 6 s # 6 6 6 6 $ 8 $ w H # # 6 6 s 6 s @ O @ s s s 6 6 s 6 6 s #   X # s 6 s 6 8 s ",
"s @ @ ~ # =.X.* 6 s s @ 6 s 6 s 6 8 $ N 6.@ O 6 s 6 s s O O X # 6 6 6 s 6 s 6 s # O # s s 6 6 6 * * ",
"8 # H E 6 E ~ 6 s 6 6 6 s s 6 s 6 6 $ 8 } @ O # s 6 * # # 6 +   + s s 6 6 s s 6 s s 6 6 6 s 6 s 8 * ",
"$ $ :.N 6 6 6 s 6 6 s s 6 s 6 8 6 n H H 9.# # 6 s 6 s + @ s s # # 6 s 6 s 6 6 6 s s s 6 s 6 # # # * ",
"8 8 j.E * 6 * * s 6 # s 6 s 6 6 6 l.B.l.9.6 # @ * # * s # * 6 s s s 6 6 s 6 # 6 s 6 6 * * 8 + O + * ",
"# 8 ,.E # n A 8 s # # s s 6 6 $ & z z e 6 s @   @ 6 * , # * 6 * 6 6 6 s s @ X O 6 6 s A n s # O + * ",
"8 8 6.@.# 9.b.@.& 6 6 s 6 6 6 $ 6 # % $ a s O O X # # @ # 6 6 6 6 m 6 s s O X X 6 @.b.8 # z.E * * s ",
"$ 8 N 8 N j.j.=.& 6 6 # 6 6 6 6 $ ( t.z & 6 # O X O @ O + s * * * A # 6 s # O # @.B.$   < +.s * 8 , ",
"$ e $ $ ( V.6.H s s 6 # 6 e $ # e l.B.T 6 6 s s * * +   O * 6 s @ * 6 6 & & H l.@.w # $ s * * 8 * * ",
"$ $ % $ w B.T & # # s # 6 $ 6 n ( 6.} n * s 6 6 * s + X X # s E 6 6 6 s * s j.6.n # # X # * * < 8 s ",
"e $ O O 6 a O # * X @ + + # =.,.O 8 w $ 6 s 6 * # * s @ O 6 6 # 6 * 6 6 * E B.T o X X @ N # O + s * ",
"$ o . X 6 s O + ~ # @ + + s b.@   s 6 6 8 s s @ @ 6 s s @ 6 8 # E @.6 6 6 s H e w . $ V.b.+   O 8 * ",
"$ X X o 6 s # @ s # O # s # @ X O m s s + * # + * * # 8 8 8 * @ ~ :.# 8 8 * * H B.# # B.6.6 O @ s * ",
"e # @ $ 6 6 s s 6 6 O O s * O X O O @ # * x # 6 * * * s 8 # # 6 8 8 * 8 * * s p.j.( @.j.6.E 6 s 8 * ",
"$ e @ $ s 6 * s 6 s s + O @ * + X X X X # :.* s # # # 8 # X + # 8 8 * * * * N b.6.b.j.6.b.n # s * * ",
"8 $ $ $ s 6 @ 6 6 # s 6 O X @ # X X s E * s * 6 * # # 8 @ + o + # 8 # X O # 8 ] b.p.p.b.,.n 6 s 8 s ",
"$ 8 s 6 s s s 6 X.=.6 6 + O @ * O + * 8 s s s 6 s 8 # 8 @ o + @ 8 8 X . . o 8 8 ( ~ 8 E s * 8 * * * ",
"6 6 6 s 6 6 6 6 s A 6 s * * s s s s * * 6 6 6 * * * 8 6 8 # @ # 8 # X   . o # # * # * # * * @ * 8 * ",
"6 6 s 6 s 6 s 6 s 6 6 w 6 s * 6 6 * # 6 6 s 6 s 6 * # 8 N b.@.8 8 # + X X H ] 8 6 8 s s s @   # 8 * ",
"8 @ @ s 6 6 6 s @.E n $ 6 * s s s 6 * s 6 6 * s * s H ~ 6.j.j.s # # 8 # J B.:.J 8 * * s s # # 6 s * ",
"* @ O * 8 6 6 8 @.j.j.n $ 6 6 6 6 8 * s s @ + + O # b.b.,.b.( # 8 8 8 # 8 8 X o ] < * 8 * * * @ s * ",
"6 * * s * 6 s 6 @.j.j.,.H N N H N # 6 8 # + O X   @ X.8 j.:.8 8 8 6 # 8 #     o ] * * 8 * 8 + O # , ",
"s * E b.s * 6 $ m B.j.j.j.6.6.p.i.# s s * # @ @ O # + X 8 N 6 6 # + o @ J #   8 e # 8 * * * # # + * ",
"6 * * m 8 @ o # s @.j.j.j.j.j.6.~ 6 8 6 s 6 6 s * * O O # 6 s 6 # O o # ~ # + ,.# < < * * 8 * * O + ",
"6 * O 6 8 + X @ 8 6 A A A m m s * 6 s * s * 6 * * 6 # # * 6 6 6 # # # # 8 + O ,.N * * O + # * * # # ",
"* 6 @ * 8 @ + # s 6 * 6 * * * s s 6 6 * ~ A * s * # 6 s * * * * 8 8 s * * * O * s * # O O # 8 < 8 s ",
"6 6 O O 8 # 6 8 6 6 * s s A n 6 s 6 s 6 8 s 8 s * # s * O O X O X * s 8 8 * * * s + X + # * * * * * ",
"6 * * * 6 8 6 6 6 s s s s b.@.* 6 s 6 6 6 6 6 6 * 6 6 # X X O * @ < s * * * * 8 s + X # * * , 8 , 8 "
};
