/* XPM */
static char *c416ea18f5a044b1c4958774d741096aW8L95xNIExlXGCWZ[] = {
/* columns rows colors chars-per-pixel */
"50 50 230 2 ",
"   c None",
".  c #560503",
"X  c #470000",
"o  c #6C0302",
"O  c #640403",
"+  c #770905",
"@  c #7C1C17",
"#  c #782726",
"$  c #6B2727",
"%  c #820B02",
"&  c #8C0C02",
"*  c #8A0703",
"=  c #940A03",
"-  c #9C0C00",
";  c #950905",
":  c #9B1302",
">  c #981708",
",  c #971B15",
"<  c #891A12",
"1  c #A41301",
"2  c #AB1600",
"3  c #AD1902",
"4  c #A01A0A",
"5  c #B21B01",
"6  c #A61A14",
"7  c #A10F00",
"8  c #95231B",
"9  c #8A231B",
"0  c #B92308",
"q  c #A72519",
"w  c #B82A17",
"e  c #B7341D",
"r  c #A4200C",
"t  c #8F3129",
"y  c #A63427",
"u  c #B93224",
"i  c #AB3732",
"p  c #C73218",
"a  c #C72F12",
"s  c #C9392A",
"d  c #CF3E2B",
"f  c #A44934",
"g  c #AD4633",
"h  c #AF743C",
"j  c #954234",
"k  c #D9442C",
"l  c #D74533",
"z  c #C34027",
"x  c #EA523B",
"c  c #E44A30",
"v  c #CE1954",
"b  c #D01D58",
"n  c #CB0E4B",
"m  c #D1235C",
"M  c #D1285F",
"N  c #CF225A",
"B  c #D32C63",
"V  c #D6366B",
"C  c #DA3D72",
"Z  c #D73F71",
"A  c #AE524A",
"S  c #A77B5C",
"D  c #AF7356",
"F  c #D55A47",
"G  c #EA624C",
"H  c #D74373",
"J  c #D94375",
"K  c #DC4C7D",
"L  c #DC4578",
"P  c #D15078",
"I  c #CB7075",
"U  c #E26350",
"Y  c #599419",
"T  c #6BA31C",
"R  c #7AAE1D",
"E  c #5B9427",
"W  c #5F8521",
"Q  c #649C2A",
"!  c #709237",
"~  c #6CA326",
"^  c #78AC28",
"/  c #6AA037",
"(  c #78AA3A",
")  c #629C17",
"_  c #79A943",
"`  c #6FA240",
"'  c #6C9F40",
"]  c #879438",
"[  c #88B828",
"{  c #91BF2E",
"}  c #89B637",
"|  c #94BF3C",
" . c #B39037",
".. c #F09732",
"X. c #F5A53D",
"o. c #D88B39",
"O. c #98C335",
"+. c #9BC728",
"@. c #A4CC34",
"#. c #B6DA38",
"$. c #ABD232",
"%. c #BEE03A",
"&. c #AB815E",
"*. c #B78E4B",
"=. c #87B445",
"-. c #94BE49",
";. c #90B453",
":. c #B1B847",
">. c #AB8362",
",. c #AE8965",
"<. c #AC8769",
"1. c #B18D6C",
"2. c #B28664",
"3. c #B78F75",
"4. c #9AA368",
"5. c #F09D42",
"6. c #F7AB48",
"7. c #FEB947",
"8. c #FFBC4B",
"9. c #FCB548",
"0. c #F4A95A",
"q. c #FBB958",
"w. c #F8B966",
"e. c #99C248",
"r. c #9EC458",
"t. c #A6CC4B",
"y. c #B8DA48",
"u. c #B8D955",
"i. c #ABD04C",
"p. c #B9D769",
"a. c #C2DE55",
"s. c #FFC24F",
"d. c #FFC351",
"f. c #FFC85B",
"g. c #C6E35A",
"h. c #C4E348",
"j. c #D0DF72",
"k. c #FFCE6B",
"l. c #FDC466",
"z. c #FFDE73",
"x. c #FFDE7B",
"c. c #FFD67E",
"v. c #FCC973",
"b. c #CDE767",
"n. c #D2EA75",
"m. c #D4EB7B",
"M. c #D0E96C",
"N. c #FFE37D",
"B. c #FFE475",
"V. c #DE5383",
"C. c #DC5987",
"Z. c #D9548A",
"A. c #E04F81",
"S. c #E25486",
"D. c #E35C8C",
"F. c #E35788",
"G. c #D86787",
"H. c #DF6697",
"J. c #E2628E",
"K. c #E56392",
"L. c #E36A93",
"P. c #E96C9A",
"I. c #E66998",
"U. c #E37399",
"Y. c #E47A9D",
"T. c #E47299",
"R. c #EC7AA4",
"E. c #EF7DA9",
"W. c #EA78A3",
"Q. c #CC928F",
"!. c #FDB698",
"~. c #EB8BAD",
"^. c #EA84A8",
"/. c #F182AD",
"(. c #EE8DB2",
"). c #F38BB4",
"_. c #F28CB6",
"`. c #EB94B2",
"'. c #EB9BB5",
"]. c #EE9DBA",
"[. c #F494BA",
"{. c #F49ABD",
"}. c #F291B6",
"|. c #EDA6BE",
" X c #F6A6BC",
".X c #FCB8B1",
"XX c #FFDA86",
"oX c #FFDD8A",
"OX c #FFD682",
"+X c #FCDA94",
"@X c #FDCD84",
"#X c #D8ED86",
"$X c #DCEF94",
"%X c #FFE384",
"&X c #FFE48C",
"*X c #FFE989",
"=X c #FFE992",
"-X c #FFE798",
";X c #FEC3A1",
":X c #FFEEA4",
">X c #F0F3B4",
",X c #F99CC3",
"<X c #F79CC1",
"1X c #EEACC2",
"2X c #F9A1C6",
"3X c #F2ADC6",
"4X c #FBA6CA",
"5X c #F5ADC9",
"6X c #FCABCD",
"7X c #F8A5C5",
"8X c #EFB2C5",
"9X c #EFB5C8",
"0X c #F4B4CC",
"qX c #F2BBCD",
"wX c #F9B1CA",
"eX c #FCAFD0",
"rX c #FBB2D2",
"tX c #F5BDD2",
"yX c #FBB8D4",
"uX c #F3C3D3",
"iX c #F6CBDA",
"pX c #F9CBDD",
"aX c #F6C6D8",
"sX c #F7D1DE",
"dX c #FBF9DA",
"fX c #FFF4C4",
"gX c #F9D4E2",
"hX c #FAD9E6",
"jX c #FCDCE9",
"kX c #F9CFE0",
/* pixels */
"                                                    rXrX6X6XrX6X6X4X{.                              ",
"                                              rX6X4X{.).).E././.).[.7X7X{.R.                        ",
"                                          eX6X4X}.R.I.K.P.P.P.K.K.F.D.W.[.,X_.H.                    ",
"                                        eX,XR.P.(.E.(.3XtXaXaXaXqX{.R.D.A.P.<X<XU.                  ",
"                                      6X[.K.F.^.5XkXgXpXyXwXwX5X0XuXaXuX^.K K ).,XI.                ",
"                                    eX_.S.D.'.pXiX3X7X0XaXgXgXgXaXwX{.|.aX9XD.J _.,XH.              ",
"                                  eX<XS.D.3XgX|._.tXjXhXpXyX5X7X5XaXsX3X^.9XuXJ.C <X_.Z.            ",
"                                rX6XK.A.3XiX^._.gXpX5X,X4X6X4X<X/.R.(.aXqXP.|.qXL Z.4XI.            ",
"                                rX[.J ~.sXY.^.hXqX)._.aXjXjXhXhXpX|.P.T.aX|.C.uX~.B _._.Z.          ",
"                                6XT.K aX`.K.aX0XW.^.pXhX4X[.}.[.0XgX{.D.(.pXC.^.uXV K.4XZ.          ",
"                x.    +X-X+X  .X6XF.L.iXK.~.gXR.K.3XhX}.R./.R.W.P.0XaXD.T.sXJ.V.aXK L 4XZ.          ",
"          -X*X%X%X&X&X&X-X    !.4XK U.aXK |.qXD.I.pX5XP.E.0X/.K.K.3XuXV.T.iXC.L uXG.C 4XK.          ",
"        =X=X=X=X%X%Xz.z.    oX;X6XK L.aXK 3X8XK L.iX`.D.~.hX~.K.W.iX].L '.qXZ J uXC.C 4XH.          ",
"      N.B.*X:X:X*XB.N.*X&XoXoX!.4XD.K aXC.`.qXK S.uX5XS.K.0XaXuXaX1XV.L.iXY.N K uXH S.4XZ.          ",
"    =X=X-XfXdXdX>X=X=XB.x.    +XwX/.B 9X^.G.iXJ.V R.iX`.S.S.L.T.G.K U.uX`.B v Y.9XB E.<XZ.          ",
"  x.z.B.*X:XfXfX-XN.B.z.x.oXoXXX!.7XV U.uXK |.3XH V Y.qXqX`.Y.T.^.1XuX^.V N V qXU.V <XU.H           ",
"  &X&X%X*X=X-X-X=X&X&X=X&X&X    v.eXE.B 1X`.K tX`.V M H T.`.|.|.].Y.H H H Z |.'.M E.{.A :.          ",
"    %XN.*X=X=X*X%XN.z.      XXOX  !.4XK.L qXY.P 9X'.H v v m m M b n v Z U.qX'.V K.4XP *.g.b.        ",
"+X&XoXx.x.&X&Xz.z.z.x.oXoXoXc.k.s.q. X6XK.G.8XJ V |.8XY.H M m m B P U.1X8XU.M J.4XG.D g.#Xm.n.n.    ",
"    oXoX-X-X-X&X&X&X&XoX    f.d.      !.4XR.L v n v C.'.8X8X|.|.1X1X`.G.B B W.<XG.D j.$X$X$XM.g.M.  ",
"+XoX                              8.8.q.!. X<XK.B v n v M H H H V b v B K.,X`.I  .h.n.>XdX>X$Xn.b.  ",
"  k.c.OXXXOXoXoXoXXXoXOX    s.8.8.8.  l.9.0.rXeX,XE.D.L V B B V L D./.<X'.I h :.g.M.n.#X$Xm.b.h.%.a.",
"  l.d.f.k.k.k.k.k.l.f.d.s.8.s.l.    q.X.X.        rX6X5X X7X{.{.<X`.Q.S *.:.#.$.#.h.g.n.n.n.b.g.g.u.",
"          d.d.d.d.s.d.          @Xq.6.6.w.            Q.3.Q.3.4.] ] :.[ [ O.i.u.y.#.%.%.%.%.%.#.#.y.",
"      8.                8.9.9.q.w.w.w.0.              1.>.  / _ ( T ^ e.e.O.+.+.$.y.u.a.a.g.a.u.y.i.",
"      l.q.8.7.8.7.9.7.8.q.q.w.w.0.5.5.                1.>.  E Y ( =.^ R } e.t.e.@.+.$.i.g.i.$.@.@.i.",
"              l.l.l.l.l.w.q.6.....                    1.<.    / Y Q =.;.^ R [ O.e.i.t.u.p.p.t.t.r.p.",
"              v.w.0.6.X.....o.*.2.                    2.<.    ;.` ~ Y ~ =.e.-.[ [ [ [ O.[ O.O.{ |   ",
"                              1.>.                    <.S       ' ` _ ~ T T ^ =.e.e.e.e.e.e.e.r.    ",
"                              1.>.                  1.<.          E E / _ ( ~ T T ~ ^ ^ ^ ^ (       ",
"                                2.>.                3.S             ! W Y / _ _ _ _ ( ( =.;.        ",
"                                1.>.                1.<.            >.>.  E E ~ / _ ;.              ",
"                                  2.>.              1.&.          A &.                              ",
"                                  >.f F G z         ,.<.    u k k r f                               ",
"                                  t y U c 0 2 q     ,.D 6 1 2 a x a u                               ",
"                                  8 e x z 0 = & ; D &.9 * - 2 a c k e                               ",
"                                  , p x a 2 = + o y g o o = 1 5 k c a                               ",
"                                  r k k 5 2 & + + w w . X O + & 0 c e q                             ",
"                                t < u p 3 & o O o < & . X O , , > > @ t                             ",
"                                      y > = * + O + @ + % , l x k g                                 ",
"                                    8 > 1 5 2 = . t S A s d l d w 4 8                               ",
"                                  i ; ; 7 2 5 : j S S &.F d s 6 ; * * 9                             ",
"                                G d w ; ; - 1 f 3.,.S <.  s 6 ; ; ; - & 9                           ",
"                              l x x d w ; ; i >.&.&.&.3.    ; = - 7 1 : + t                         ",
"                            A i F x x d u     ,.&.&.>.      y - 7 2 5 7 + o $                       ",
"                                  s x G       1.&.&.          u 5 5 5 4 < O . $                     ",
"                                  6 s           ,.<.            u 2 - q       #                     ",
"                                  t                               q ; ,                             ",
"                                                                    ,                               ",
"                                                                                                    "
};
