/* XPM */
static char *result[] = {
/* columns rows colors chars-per-pixel */
"48 50 128 2 ",
"   c #2F1D0A",
".  c #341D0C",
"X  c #331E12",
"o  c #3B1F12",
"O  c #35220E",
"+  c #3A230E",
"@  c #3D2A0E",
"#  c #2F2010",
"$  c #352313",
"%  c #3B2513",
"&  c #372815",
"*  c #3D2914",
"=  c #352418",
"-  c #3C2519",
";  c #3D2A1A",
":  c #3E3018",
">  c #402615",
",  c #422B15",
"<  c #492D15",
"1  c #422619",
"2  c #442B19",
"3  c #4A2E1A",
"4  c #463117",
"5  c #4C3416",
"6  c #45311A",
"7  c #4B331B",
"8  c #4E391A",
"9  c #593C17",
"0  c #52361C",
"q  c #543A1D",
"w  c #5A3D1D",
"e  c #4E3521",
"r  c #4F3821",
"t  c #523621",
"y  c #553B22",
"u  c #5A3D22",
"i  c #5B3F2A",
"p  c #603F25",
"a  c #56401D",
"s  c #5C411E",
"d  c #564023",
"f  c #5D4123",
"g  c #5F4823",
"h  c #5C432A",
"j  c #634524",
"k  c #684624",
"l  c #654A24",
"z  c #6D4D26",
"x  c #63452A",
"c  c #69472C",
"v  c #664A2A",
"b  c #6E4D2A",
"n  c #724F26",
"m  c #714E2B",
"M  c #6E5126",
"N  c #6E512A",
"B  c #725326",
"V  c #795627",
"C  c #765826",
"Z  c #73532A",
"A  c #79562C",
"S  c #76582B",
"D  c #7B5A2C",
"F  c #6D4E31",
"G  c #714F31",
"H  c #6F5330",
"J  c #745232",
"K  c #7A5634",
"L  c #775933",
"P  c #7D5B32",
"I  c #7E5B3B",
"U  c #7E602D",
"Y  c #7F6031",
"T  c #805C2E",
"R  c #825E34",
"E  c #885F35",
"W  c #825E39",
"Q  c #895F39",
"!  c #86642F",
"~  c #846134",
"^  c #8A6435",
"/  c #8E6837",
"(  c #85633A",
")  c #8C653A",
"_  c #8E693B",
"`  c #916636",
"'  c #926B36",
"]  c #91663A",
"[  c #936B3C",
"{  c #9A6E3E",
"}  c #95713D",
"|  c #9B743E",
" . c #A5773E",
".. c #836140",
"X. c #8B6640",
"o. c #8E6B42",
"O. c #946641",
"+. c #946C44",
"@. c #996F43",
"#. c #9A6F49",
"$. c #967140",
"%. c #9C7443",
"&. c #9D7C45",
"*. c #967048",
"=. c #9D744B",
"-. c #9B7848",
";. c #A37644",
":. c #A47B45",
">. c #A97D45",
",. c #A37649",
"<. c #A57B4B",
"1. c #AA7D4B",
"2. c #A47C50",
"3. c #AF7E52",
"4. c #AC814D",
"5. c #B2844E",
"6. c #BA854C",
"7. c #B3894F",
"8. c #AE8352",
"9. c #AF8559",
"0. c #B28552",
"q. c #BB8652",
"w. c #B68954",
"e. c #BB8A54",
"r. c #BC8C59",
"t. c #BF905C",
"y. c #C18F5A",
"u. c #C2915B",
/* pixels */
"b z B n 3 % * :   K 0.] [ ' >.3.+.b 2 $ 4 a M S C S S A S Z z 8 % u _ E Z z b b Z S >.0.; f ' Z ",
"b Z L l 2 % $ . x 5.^ R ~ Q ( ) %.q.<.m , % y j z b m z j q 5 * 8 v K S b b m b Z Z %.0.> q A b ",
"z Z S q - $ j O.1.^ Z Z M Z S A V E ,.y.4.t - , 7 t 5 3 , % > 9 Z Z Z N b c J z z M ! ( % w Z b ",
"B B l 7 $ j w.>.D S S Z n b b M B Z T [ r.,.- * % % 1 3 q h N Z N z b z b b b z z Z z 5 > k m b ",
"C Z q > % H ( B Z N b m m c b b z m S R ` w.h % * % & 6 y v S Z N Z m N b Z M Z S Z t * q l b b ",
"j q > - 1 y Z A A b b b b b b b N b Z ~ _ 4.x . % 7 q 7 4 @ * 0 w j N Z Z A S S M q > 2 j v b b ",
"< > - % * 0 Z S Z b b m b b b b v b N R ' :.1 q *.8.5.5.0.<.c + - o * d l l l f 8 * % y b m m b ",
"% 2 x J % 2 b S Z b b b b b b b b N M A _ w x 4.;./ ~ ~ D | e.a - K A - * % & $ 1 * 5 z S J m b ",
"0 l A ;.L % j A b z b b b b b b N b Z Z w , @.^ B b z M N D e.b u 4.<.%.A m K f $ 6 u b l j j x ",
"Z z Z ) 0.6 q A b z b b b b m b v v M 9 + H ~ m v N b Z P 2.y.t i T S [ >.1.4.w.j = e > $ % X % ",
"m b z R 4.u < b B b b b b b v l M Z q % 0 m A b Z Z Z ^ ( ( i > l S m S A A D 1.o.# * x R ) W J ",
"b b z T 1.x 1 l S m b b b z Z A b r - 3 z S B S Z m s q > X % , k S b l n n R %.h 2 +.0.1.%.| | ",
"b b z R ,.5 ; h m S Z b b S Z x 2 - t B S n M l u > > t 7 6 - O , x Z b b b R C % j @.R D D P P ",
"Z z M ~ ( , & 6 5 j b v v x 7 % > f j 0 2 > * * $ x 1.:.| %.} J < X r b Z Z B 5 ; l S Z Z S S Z ",
"x v h 0 > O + % - O * , , * * 7 f 5 + 7 H K v % 5 0.%.^ ` [ %.0.8.F X > 2 f l * 2 b z b b b b Z ",
"1 , O , x R %.&.&.( 0 O & 4 5 r * 3 ) 0.4.| e.Z g %.A S L R ( ^ %.0.[ G y % , % 3 l m b b b z B ",
"= 6 R 5.u.y.e.5.1.t.r.R * * 7 @ 7 3.4.^ P T ;.b y R A Z m Z Z A D E } w.u.Z = * 5 b b b b b b N ",
"u 7 1.,.' R W R R _  .u.,.< - & o.%.T A Z D 1.c 7 S Z S b v z N m B B D { <.2 % u b b b m b b b ",
"o.% k A A Z Z B B D ~ ' q.8.e % Z E S b b Z 1.J , S A Z b b b b b m Z K ^ %.c % h N b b b b b n ",
"-.< u A A A m n B B D ) / 6.4.1 5 m B z b l [ Q % z S z m b b b b b S S Y } K * x J b b b b b z ",
"%.y q A m b b b b Z Z D _ ) y.E = l B z b z S j 1 s S M b b b b b z Z Z ! ' R % v Z b b b b b b ",
"| y q S n b b b z N n Z D ^ %.r.5 7 Z z b z Z l > 0 S Z b b m b b m B Z D / ( % j A z z b b b b ",
"] 3 u B z n m b z z m m B R _ 7.K o z Z b z Z z 4 5 M B b b c m N b Z Z D } b $ u J Z b b b b b ",
"J % u Z z b b b b z b z Z Z ~ >.+.X z C z z Z z 6 0 ^ A Z Z b b v N Z S M N 3 = 5 g N Z m b b z ",
"0 * f S b b b b b b c z S B P %.%.; w A B C C z o W 1.T Z n b b b v Z M l , % * > 1 y l N Z N z ",
"* ; w Z z m m b b b m m n C ~ } R % * 5 b n k < 5 8.` Z n z b b b M B z 5 * & X 1 3 % , 9 N Z Z ",
"* 3 j C Z c b m b b b b b N ~ { u - P x $ % % u =.{ S b b b m z N L v 7 % & u ( -.4.) 2 > g N S ",
"* 1 w Z S b b b b b b b b n D K * 4 D 8.] E @.<.( G z m c b b z Z N 8 % > ( 1.,.@.[ 8.( & 7 y f ",
"O % 5 l Z J S Z b b N M n C Z q % y N C ' | / S z b c G b v Z S l 4 # y =.1.^ ) ~ S S m * * * * ",
") c % * g z Z A S S Z Z M M d , % q b A B B C B b b b b b Z Z u + % N 1.{ ^ ^ A M B C b 4 % * * ",
";.0.$.> 1 s l N M M b j f 0 * % * < , y u h z B S J Z m M g 1 X u { :.] ) ~ S z l z B Z 8 % * 4 ",
"A ^ 6.*.= , e y y r 7 2 % * h y + 2 7 7 7 * $ , q d h y * O t X.<.| ^ ( K Z z b m b b Z 5 % 2 s ",
"Z ~ ) 7.Q . 1 - - > $ > J ;.e.0.;.4.0.q.e.8.W > = & $ > p ) 2.%._ ( S Z z z z b b b n Z 8 % r N ",
"Z L _ ] 3.c . > % 3 _ >.5.%.! E ) ' [ ) / %.y.<.1 - b =.>.| ) R A C z v b z z b b z z S 7 * f m ",
"Z S P [ ] <.J % & 7 Q _ D S Z n B Z Z S S B D w.o.O x ] E S D b N Z N Z S Z n z m Z B k > ; j B ",
"b Z S D / ` ,.] < . 2 x Z Z Z z z n Z Z m A N ! w.w % b S k u 5 , > 5 f b A C Z S S z 0 > * w z ",
"z Z S B A ~ / ,.8.G o % f Z N v b b b b b m A n 1._ O q h < $ 3 y 7 * % 1 q k b k f > X $ * 8 g ",
"z b z m Z B D ( { r.+., * x Z b b b b b b z z C [ <., , % @ m _ +.+.P y $ * * 2 * % h N b 2 $ y ",
"z z z b m b Z A P ) w.@.O q Z m b b m m b b z B ( 5.8 = @ L } ~ U ~ ^ [ d % ; $ p =.1.:.>.0.j * ",
"b b b b b b N Z Z D ^ w.u 2 m b b b b c b b m z S _ 5 % S } D B z z M ~ ( 4 $ Z 4.[ D D E @.9.< ",
"b b m m b b z M S A ~ 1.i , Z N b b b b b m b m C j % u _ D Z m z b v Z _ v % R D M n B A R 4.Q ",
"m b b c b m b n Z A _ Q & 7 b S b b b b b b b Z S y & w n n b b b b N Z ^ K * f S m b m b Z $.4.",
"b b b b b b n n B S ( q % 4 c S n b b b b k z B l 3 > j Z Z b b b b n Z ^ S * l Z b b b z M ^ e.",
"m c b z Z S B B C K y % > 2 j Z z b z b m n C M f > < z A Z b b b b Z B ' u > l Z z b b b b E 5.",
"M z z Z S Z S Z Z y X d , , w z Z N v m Z S S l 5 , s Z Z n b b Z b N R ^ 2 8 z Z b b m b b P >.",
"Z M B B C S Z c 1   z u.R $ u l N S C S C S N r - 0 N Z Z n b z Z B A o.s > f v N b b b b z A :.",
"N Z Z S S w 5 $ q Y 2. .8.- 3 w l N Z Z Z l r * 6 z N N b z m b Z S / I % 7 j M b N m z b Z S ~ ",
"C B S j > - % ( 4.=.~ ~ 0.L . 2 5 y y q r ; * 7 l Z z M z z Z Z Z R _ e 1 f z B b z z z b S S j ",
"N S a , I 4 4 R ^ R S B E 5.W > % ; - > > 3 w z S z z Z S Z Z B S L p > q k A Z m b z Z B S Z y ",
"N y % Z *.% q z Z N l n n A 8.0.m > 2 y s l B S M z l x b C S Z x 3 $ 7 j z m l b b b N z m j > "
};
