/* XPM */
static char *d60572aade454f1ad259809dfc8d53adLoAGSf3LJRBFSHFF[] = {
/* columns rows colors chars-per-pixel */
"50 50 154 2 ",
"   c #39200F",
".  c #362413",
"X  c #3C2614",
"o  c #3D2915",
"O  c #372418",
"+  c #3D2619",
"@  c #3D2919",
"#  c #422716",
"$  c #432B16",
"%  c #492E16",
"&  c #402619",
"*  c #442C19",
"=  c #492E1A",
"-  c #463016",
";  c #493216",
":  c #46301A",
">  c #4C331B",
",  c #4F391B",
"<  c #523816",
"1  c #51351C",
"2  c #543A1D",
"3  c #593D1E",
"4  c #4C3320",
"5  c #4F3920",
"6  c #533621",
"7  c #553B21",
"8  c #5B3E23",
"9  c #603F27",
"0  c #5B411F",
"q  c #62411F",
"w  c #65491F",
"e  c #5C4123",
"r  c #5F4923",
"t  c #5D4229",
"y  c #624524",
"u  c #694723",
"i  c #664A24",
"p  c #6C4D26",
"a  c #634529",
"s  c #68462D",
"d  c #664929",
"f  c #6D4D2A",
"g  c #714E26",
"h  c #714F2A",
"j  c #6E5126",
"k  c #6E5129",
"l  c #725326",
"z  c #73532A",
"x  c #79562C",
"c  c #76582C",
"v  c #7B592F",
"b  c #7F5A2C",
"n  c #7F5B2D",
"m  c #7D5A2F",
"M  c #7B5A2D",
"N  c #6E4E30",
"B  c #714E32",
"V  c #6F5330",
"C  c #775535",
"Z  c #735232",
"A  c #7A5633",
"S  c #7A5832",
"D  c #7D5C30",
"F  c #7D5B33",
"G  c #7F5B38",
"H  c #7F6037",
"J  c #815D2E",
"K  c #835F31",
"L  c #805F32",
"P  c #825E33",
"I  c #845C38",
"U  c #835E3A",
"Y  c #885F39",
"T  c #836130",
"R  c #856032",
"E  c #866633",
"W  c #836136",
"Q  c #846135",
"!  c #856037",
"~  c #846133",
"^  c #896335",
"/  c #8B6537",
"(  c #8C6534",
")  c #8C6537",
"_  c #8A6436",
"`  c #8B6936",
"'  c #866139",
"]  c #86623A",
"[  c #8B633A",
"{  c #8C6438",
"}  c #8B653A",
"|  c #8D693C",
" . c #916937",
".. c #92673A",
"X. c #93673B",
"o. c #936939",
"O. c #936C3A",
"+. c #956D3A",
"@. c #916C3D",
"#. c #926B3C",
"$. c #986F3C",
"%. c #9A6E3E",
"&. c #996F3D",
"*. c #96713F",
"=. c #9B713E",
"-. c #9A723E",
";. c #A0783F",
":. c #8B6740",
">. c #8F6A42",
",. c #936D41",
"<. c #956C41",
"1. c #976E43",
"2. c #946C43",
"3. c #9A6F41",
"4. c #977244",
"5. c #9B7140",
"6. c #9C7245",
"7. c #9B7644",
"8. c #9F7445",
"9. c #9D7447",
"0. c #9F7446",
"q. c #9C7344",
"w. c #9B7945",
"e. c #9E7648",
"r. c #9D7549",
"t. c #9C7848",
"y. c #A07544",
"u. c #A27644",
"i. c #A27944",
"p. c #A27B46",
"a. c #A47945",
"s. c #AC7E47",
"d. c #A37649",
"f. c #A67949",
"g. c #A47B49",
"h. c #A57B4D",
"j. c #A47A4A",
"k. c #A87A4A",
"l. c #AA7E48",
"z. c #AA7F4D",
"x. c #AB7D4C",
"c. c #B17F4D",
"v. c #AD7E50",
"b. c #AF8048",
"n. c #AC814C",
"m. c #B3834E",
"M. c #AE8354",
"N. c #B28551",
"B. c #B98755",
"V. c #B68852",
"C. c #B78955",
"Z. c #B98A57",
"A. c #BA8A55",
"S. c #B78959",
/* pixels */
"f p z p 1 X o o . a 6.y...o.&.k.h.:.d * X ; 3 f z l z x z z z p 2 $ : A { F h g f h z ~ b.t.* e ) z ",
"f z x i = X X . 6 ,.-.P P Q ' [ O.i.v.3.f $ $ 7 y p f f f i 0 > $ : r z x z f f B f z D p.8.$ e x z ",
"j z z e * . 7 I 8.+.D z l z z x x J { g.S.9.6 + = > , , $ = o - < p z z z f f f f p p l E Z o 0 z f ",
"l l i , + 2 6.s.( v z x k j f k g l x K 3.V.2.* o o X & = , e i k k k f f f f f f p l l i = $ i h f ",
"z g 8 * X t ! J z z k f f f f f g f k D ! -.n.e . $ o @ : 5 t z z f f k f z k f z z z i , & 1 p f f ",
"w 2 $ X @ 5 f x x z f f f f f f f f f x Q @.g.t . X , 2 2 , - * > 2 e f z z z x z z j 1 * : y f f h ",
"= # & & @ : i x z g B f f f f f f f k z ~ O.+.: 8 ,.h.x.l.z.j.F = X # $ > e d i i 2 ; o * 8 d h f f ",
"X * 8 Z : $ i z z g f f f f f f f f f k m ! q s g.5.` ~ ~ D O.m.z * a A 8 $ $ $ o + * o , p z C h f ",
"< y x 4.U $ 8 z z g f f f f f f f f k z f 2 1 | ( x z p l k v x.I 8 } h.6.U z x N 5 O 4 e p y y a e ",
"z g g ^ x.t > f z p p f f f f f d f k p < $ V ! z p k p z D 6.S.B 7 z D ! -.i.i.n.7., O > $ o @ X & ",
"f h f P g.f : y g f f g f f f f j k d 1 $ 6 z z f g z z ~ I ] N = 2 z z z v m m o.j.V . : f I [ F Z ",
"f f p m d.V = e z z f f f f k k f r > # 1 g z l z z f e 3 $ O X o 3 l z j p g z [ ] 8 7 2.v.i.5.3.-.",
"f f p F 9.a o 5 f z z f f z z f 8 $ * 8 p z j j i 8 = $ 2 7 > & X o 8 d f f g z m w - k @.Y m m F F ",
"z f j m ! > o $ ; 8 i d i d 8 : # = 8 e 1 : $ * $ X a 6.y.&.*.*.F 7 o = e f z z w - : d x h z z x z ",
"a a e 3 : X X $ @ o $ : : * o * > 2 : $ 7 Z x d $ , j.q.{ ^ | *.l.M.] 4 O = 1 y 2 o 5 f f f h f f z ",
"* * o $ 9 v @.t.w.| f $ . o - , ; $ 9 #.M.p.5.x.k r 4.D c D P ! [ ,.g.6.G s > $ o o 2 f h f f h p z ",
"O = F d.B.A.V.m.s.N.A.q.y o & = $ s n.i.( H ~ y.f 2 P x x z z z x D P | i.C.6.7 . $ 2 f h f f f p k ",
"8 , 9.y.+.[ ' U P ( -.m.N.Z = O 2 ,.-.D x z P u.N , z z z f f f f h l l v ` d.F o : t k f f f f f k ",
"] = u x x z z z l c T ) a.N.] : > v P z f f x y.Z ; z x z k f f f f f z x F @.[ 7 * d k f f g f f p ",
"4., 8 x x z z g k j x ~ ..u.m.U $ 3 z p f f p | G * i z z f f f f f f z x D | | e : d Z f f f f f p ",
"4.8 7 z z g h f f k z x ! ) a.x.s : p l f f p x a * 0 l g f f f f f f g l x E O.a : f z f f f f f g ",
"#.8 2 z g f f f p z f l x ~ O.l.,.: 2 l p f p z y = < l z f f f f f f z z c E | d = d z f f f f f f ",
"..1 2 l g p f f p p p g g x E 8.i.a $ j g f p z p = ; p z h f f f f f l z c E W 2 $ a z f p f f f f ",
"h # 7 z g f f f h f f f l z v O.g.C $ g x p p z p : 2 ~ m z g f f f f l z z j y * o 2 i z z p f f f ",
"1 + 8 z p p g f f h f f h z x ` 8.G o y x l l l w * A g.K z l g f f f k z p 2 $ X @ * : 0 u k z f p ",
"o @ 8 l f f f f f f f f f l x | @.f o - 2 p p y % 1 u.o.x g p g f f k j j 0 $ o . O = = o : 0 k z z ",
"X = e l z f N h f f f f f f c { Q , ; Z e $ % % y 1.&.v f f f h i k k k 0 * . : f } 6.8.F = $ e k z ",
"o * 2 z z z f f f f f f f g z J a o 2 ! d.[ I ,.6.Y C p f f f f f c k 0 o X a 2.d.6.,.4.j.Z o > 7 e ",
"X X > e k z Z z k k f k f l z d : o 8 k J ..O.` v f f f B N f f z f 2 o : C j.5.{ ] D M v i o o $ o ",
"[ f $ $ e p k c c z z z j j i 2 $ $ 8 k z l l l l f f f f f f z e = . e | u.o.[ Q x l z l i $ o o o ",
"5.x.,.1 = 2 y k k j p d y 2 ; o o $ $ , 7 8 r i j z Z k z p y : X 1 P =.q.{ ' D z p p j z k ;   o ; ",
"m { l.6.4 o ; 7 7 , > = = $ 5 y 1 $ : 6 7 2 = o - , 8 e 7 : o > C 7.8.| [ F x k p f f p k k ; o - 0 ",
"z H { n.[ * & & + # X $ 8 Y k.m.k.8.g.c.c.v.j.F = O O o # 8 I 6.7.@.' D z k p p f f f f z f ; o 2 f ",
"z F } o.k.C # # X # f q.k.g.@.K K  .+.@.| o.8.V.6.4 @ a ,.y.=.o.! D c j f f f p p f f j l p > @ e g ",
"z x F | @.6.I > . X f { ` m x x z l x z x x z E n.:.o t ^ ~ J x z k j p g z z l l j z z j y $ * y p ",
"j z c M ( ( q.2.a # & 7 k z z g p p z z z g x z E n.y $ d z p 8 , : $ > 2 y z c l z z z y 1 o o 0 p ",
"p z z z x T ( 3.h.[ 6 X : d z f s g f f f f h z x u.} o 2 8 ; $ = 6 7 ; X $ > e d p y 2 % O . X > r ",
"p f p g z z v P X.c.d.s o , f f f f f f f h f g z +.j.; * o o r I | | ! d = . o # * * : r f s > @ 2 ",
"p p p f g k z v F Y g.k.d * e z h f h f f f p g l ! g.e @ o p ` ( P m ! | c : o X = B 6.i.;.i.u.a o ",
"f f f f f f f z z x K g.] : 7 z f f f f f f f h l v ( , o f ` H z z j j v [ d o = U j.[ J P ^ 6.j.1 ",
"f f f f f f f p l x D q.G 4 2 z g f f f f h f f z l d $ 6 P P z z f f k z ~ F 6 6 P x l l l x E n.' ",
"f h f f f z f g z z Q | a @ 0 z z f f f f f f f z z 3 X 1 g l f f f f f k m ! e = p z f f f z x 5.n.",
"f f g f f f g j z z Q f $ o 2 k z p f f f f p p z p ; $ e z z g f f p g j m P e = i z f f f f z ) m.",
"f h f f z z l l l m d = o o 2 i l l d f h h g l j 8 $ ; u z z f f f f k z T b 1 ; p z f f f f f ^ m.",
"f p p z x z c l l y = : 2 $ ; y k k k j z z l k y : $ 0 k z l f f g k k v ! i : 2 p k f f f f z ~ a.",
"f k z l l x l f 7 . > 7.j.8 * e p z z z l c c k 2 o , p z z l f f g z x ' A > : i j k f f f f f J u.",
"j z z c z 0 > # > f >.i.x.A @ , e u k z z k i 5 @ > i k z f p k g k z ~ ] t $ 7 u j k f f f f z v P ",
"l c l y > * . f 7.j.o.~ 8.6.8 . : 2 7 2 7 , @ o , i k k g p p z z z D ( s = , y j z g p p f z z l d ",
"c j e - Z 5 $ k ( Q v z m $.6.s $ o & @ $ $ > 8 p l j p g z z l z z D s > : e f z z g f p z z z k 7 ",
"z 7 $ i 2., > i z k f p g x @.M.,.9 $ = 2 3 y l l l p p a f z c z f 7 o * 2 u p f f f f f z j f e $ "
};
