/* XPM */
static char *_d135884dae4479ecde3e135029d6310gfSgy9FUC7CD2Kow[] = {
/* columns rows colors chars-per-pixel */
"70 70 152 2 ",
"   c #1E1E30",
".  c #221F32",
"X  c #252434",
"o  c #262835",
"O  c #282A35",
"+  c #262438",
"@  c #2C263B",
"#  c #27293A",
"$  c #2B2B3C",
"%  c #30273F",
"&  c #33363F",
"*  c #32383F",
"=  c #2F2741",
"-  c #2E2B41",
";  c #302740",
":  c #342B45",
">  c #342D48",
",  c #2E3042",
"<  c #323445",
"1  c #353845",
"2  c #353548",
"3  c #3B344C",
"4  c #363A49",
"5  c #3A3A4C",
"6  c #3E3451",
"7  c #3D3D52",
"8  c #413654",
"9  c #413C55",
"0  c #433D59",
"q  c #374048",
"w  c #3A414D",
"e  c #3C4252",
"r  c #3E4A55",
"t  c #424256",
"y  c #424A56",
"u  c #45445B",
"i  c #49445E",
"p  c #464A5C",
"a  c #484D5E",
"s  c #46505F",
"d  c #49535F",
"f  c #474760",
"g  c #4A4661",
"h  c #474C62",
"j  c #4B4C62",
"k  c #4F4C69",
"l  c #514B66",
"z  c #524E6B",
"x  c #584E6E",
"c  c #475261",
"v  c #4B5463",
"b  c #4E5866",
"n  c #4E5668",
"m  c #4F5969",
"M  c #515467",
"N  c #505966",
"B  c #53546C",
"V  c #59536E",
"C  c #535C6C",
"Z  c #595A6D",
"A  c #565471",
"S  c #595572",
"D  c #565E71",
"F  c #5A5B74",
"G  c #5E5D79",
"H  c #615A77",
"J  c #615D7C",
"K  c #56606F",
"L  c #566172",
"P  c #5A6275",
"I  c #5E657A",
"U  c #5F687A",
"Y  c #63647D",
"T  c #68627D",
"R  c #61697D",
"E  c #656581",
"W  c #686685",
"Q  c #656D83",
"!  c #686D86",
"~  c #676F88",
"^  c #6B6E89",
"/  c #726E87",
"(  c #716E8C",
")  c #677085",
"_  c #697186",
"`  c #677489",
"'  c #6D748D",
"]  c #6D758D",
"[  c #6D748E",
"{  c #6D768F",
"}  c #70738C",
"|  c #70758E",
" . c #71798F",
".. c #6E7590",
"X. c #727491",
"o. c #707791",
"O. c #747491",
"+. c #707992",
"@. c #717894",
"#. c #737B94",
"$. c #767F94",
"%. c #787E97",
"&. c #767E98",
"*. c #797F99",
"=. c #788197",
"-. c #77819A",
";. c #7B839B",
":. c #79809C",
">. c #7B839C",
",. c #7E859F",
"<. c #7F889D",
"1. c #7E85A0",
"2. c #7F86A1",
"3. c #7E86A3",
"4. c #80839D",
"5. c #80889F",
"6. c #8185A0",
"7. c #8189A3",
"8. c #8088A4",
"9. c #848AA4",
"0. c #848BA5",
"q. c #848BA7",
"w. c #858CA7",
"e. c #888BA6",
"r. c #858DA9",
"t. c #878EAA",
"y. c #898EAA",
"u. c #888FAA",
"i. c #898FAC",
"p. c #8B92AC",
"a. c #8B92AD",
"s. c #8C93AF",
"d. c #9093AC",
"f. c #8C93B1",
"g. c #8D95B1",
"h. c #9197B1",
"j. c #9098B3",
"k. c #939BB3",
"l. c #999BB6",
"z. c #979EB9",
"x. c #9A9DB9",
"c. c #9CA2BB",
"v. c #A0A4BC",
"b. c #A3A9BF",
"n. c #9DA6C0",
"m. c #9FA8C3",
"M. c #A5ABC3",
"N. c #A6ADC7",
"B. c #A8AEC7",
"V. c #A6AFC9",
"C. c #A9B0C9",
"Z. c #A9B1CD",
/* pixels */
"s.2.[ [ ] ] ] ] ] ] [ [ ] Q B j ^ l.x F G b v v n U N v v v v d v v q o R C.p.s.9.7.;.=.:.<.| ] | ] ] [ _ v $ G P c Z ) n c v R R c v d d c ",
"f.2.[ [ [ [ ] ] ] ] [ [ ) b i W p.q.` z G D m c c v v v v v v d d v 5 o T C.p.0.+.] P b P ` [ [ ] [ _ ] Q v $ P P c C R b d c I I C N n v d ",
"s.7.[ [ [ [ [ [ ] ] ] _ B i ^ p.3.+.[ _ k F I v v v v v v v v s v v q o Y M.p.$.] ] P Y R C ] [ [ _ I C R c $ P P c b b b N v b P ) Y n v v ",
"s.,.[ [ [ [ [ [ [ [ Q b t } i.6.X.[ [ [ Q z B Y v v v v v v v c d v q O Z j.t...[ [ ` ` R C _ ] [ I P R m h $ P P d c v N R C P U N b v v c ",
"s.,.[ [ ] [ ] [ ' E n i O.y.2.+._ [ [ [ ..! A z Y n v v v v v v d v q o B p.t.+.[ [ [ [ ` R D _  ._ _ _ R s $ P L v v N R C Y I N v v v n c ",
"U P I ] [ [ [ | Q n g X.i.f.:.[ [ [ [ [ ....~ A z I n v v v v c c c q o J m.t.+.[ [ | [ [ [ R K _ [ ] ] _ c # G _ Y Q R K v C N v v v v c c ",
"[ ] _ P P P P P n l ' p.p.<.+.[ [ [ [ [ [ ...._ S B I m v v v v v v q o Y Z.t...[ ] ] [ ] ] ` Y P Q ] [ _ v $ P [ Q R ` I U m c v v n c v v ",
"0.7.=.Q Q ) N y z ^ p.7.2.y.:.[ [ [ [ [ [ [ ` ..~ B S G N v v v v v 5 o Y m.8.X.} ] [ ] [ [ [ [ R Q ] [ _ v $ G Q C m R [ R N n v v c b c v ",
":.[ #.7.q.;.Q S ( p.8.+.8.k.5.[ [ [ [ [ { _ ..[ [ ^ z F G N c d d v q O F z.y...[ [ [ [ [ ..[ [ [ ] [ [ Q c $ G P c v N R N v v c b C n v d ",
"=.[ [ ` Q M :.i.p.q.' @.c.;.] [ [ [ [ [ ..X.[ ^ ......z S I N d v v 5 O Y C.t.X.[ [ [ [ [ [ [ [ [ [ ] [ ) v $ P I c v v d c d v c C R C b b ",
"*.[ [ Q s g %.>.1.2...'  .[ ] ] ..[ _ [ [ [ [  .[ [ ..[ B B R b v d q O Y V.p...[ [ [ [ ..[ [ ..[ [ [  .` j $ P P c v v v v v v m m m Q ) C ",
"%.[ Q j i :.-.2.1...' ' ] [ [ ] ....X.[ [ [ [ [ [ ......^ F k Y b d 5 o R V.t.@.[ [ [ [ [ [ [ ~ _ ] [ [ ) c $ G P c v v v v v v P E n m N v ",
"$.R j j ,.M.j.-.} [ ] [ [ [ [ [ [ [ [ [ [ [ [ [ [ [ [ [ [ [ F k R N q o C s.=.8. .[ { { [ { ! 5 < C [ [ ) c $ P P v v v v v v a P Q v v d v ",
"Q j z 4.M.z.,.X.[ ] [ ] [ [ [ [ [ [ [ [ [ [ [ [ [ [ _ { [  .) G l Y t o S 9. .-. .[ { [ [ { _ - X M | [ Q j - P P v v n v v c c m m v v v v ",
"j x *.f.x.2.X.[ [ [ [ [ [ [ [ [ ..[ [ [ [ [ [ [ [ [ X...[ | R p 5 g 5 O S 2.L L P P L P P C e o : 0 l ! s.v + u g u 0 0 i 0 t u 0 u t u u t ",
"Y y.x.>.>...[ [ ..| ] [ [ [ [ [ [ X._ [ [ ....` [ [ [ ..| R a * 1 4 & O 7 v 2 2 1 2 4 4 1 < X @ 8 > @ 0 Y 5 + @ - ; ; @ ; ; ; ; : = ; - ; @ ",
"/ l.v.q.[ ' ' ' [ [ [ [ [ [ ' ..' ' ' ' E _ ' ' [ [ ] [  .N * * & 1 C 5 : e e t t 9 e e 7 t t l l i 7 9 e 7 o a M j v Z Z S k p v a i j j a ",
"5 B e.z.X.' ' ' [ [ [ [ ' ' ' ' ' ' ' ~ P Q ..' [ ] ] ] X.C * * 4 V v.P u } Q Q R Q Q ) Q Q Q Q W Q Q Q Q G - d.z.q.g.M.M.M.f.9.0.0.p.8.8.y.",
"p 3 i ! ' ' ..' [ [ [ [ ' ' ' ' ..' ' [ [ ' ' ' | _ =.+. .b 5 s V l.N.B y Q v n v v b d c c v v b b v v j 6 @ y.y.[ [ [  . .[ [ ] ]  .} |  .",
"j 1 5 i ~ ..' ' [ [ [ [ ' ' ' ' ' ' ' ' [ ' ' ..R K c.5.` b Z b.v.4.P 2 u Q v v v d d v v v v v d c v c j 3 @ $.,.[ [ [ [ [ [ [ ] ] ] [ [ [ ",
"C d y 4 i ! ' ' ....' [ ] ] [ ]  .] ] [ ] [ | Q n C v.5.b 5 Z p.=.[ C 1 u Q c c v v v v v v v v c v c v c 3 @ p.y.[ ] [ [ [ [ [ [ [ [ [ ] ] ",
"C d j y 2 i E ' ....[ [ ] ] I =.j.] ] [ [ [ [ R v N $.B 2 V *.#.[ [ C , u Q v b v v v v v v v d v v v v j 6 @ d.p.] [ ] [ [ [ [ [ [ [ [ [ ] ",
"P d v v y 5 i Y ....] ] [ ] )  .p.k.+.[ [ [  .Q N I a 3 F %.=.` { ] C < p Q v N v v v v v v v d v P ` _ v 3 @ d.p.] [ [ ] [ [ [  .[ ]  .] I ",
"D v v c c y 2 i G ..] ] ] ] [ [ =.p.[ [ [ [ Q P P N 3 G @.%.[ [ ] [ K , a E v v v v v v M v v d v Z Q U a 3 @ ;.5.] ] ] ] [ I P R ] [ _ U P ",
"D v v v d v y 5 i Y [ [ [ [ [ [ ] ] | [ [ ..Q P v 5 S *.=.] [ ] ] ] K , a Q v v v v v v v v v v v c c c j 3 $ X.:.] [ ] [ ] I F R [ | ] I R ",
"P c v v d v c r 5 u Y [ [ [ [ [ ] [ [ [ [ [ Q B 5 V *.%.[ [ [ ] ] ] L , p Q v v v v v M v v v v v C b c a 3 $ O.;.[ [ [ ] [ ] ] [ ] Q [ ] ] ",
"D v v v v v c v p 4 0 E [ [ [ [ [ [ ] ] | ! v 5 S 5.O...[ [ ] ] ] ] C < u Q v v v v v v v v v v v I I C C 6 O O.;.[ [ [ [ [ ] ] [ Q D Q ] ] ",
"P d v v v d b d d y 5 0 E [ ..[ [ [ [ [ ` j 5 S 6.+.[ ..[ [ [ ] ] _ K , p Q v v v v v v v v d v v v P +.@.8 $ X.*.[ [ [ [ | _ ) | [ Q C _ ] ",
"Z c v v v v v v c v y 5 t Y [ [ [ [ | _ p 5 G 2.+.[ [ | [ [ [ [ [ { L < p Q c c d v v v v v b c v v b m n 3 @ O.;.[ [ [ _ _ P R  .] _ ] [ [ ",
"n n v v v v v v v v d d 4 9 Y [ ] ] _ p 3 T *.@.| [ [ [ [ [ [ [ [ [ C < u Q v v v c v v c v v d v v c d h 6 @ X.;.[ | _ C C R ] R N P ` [ [ ",
"C c n v v n v v v c b d y 5 t J | ! p 5 W *.#.[ [ [ [ [ [ [ [ [ { [ C , p Q v n b I C d C )  .C [ R d c h 3 @ X.:.[ [ ` R b Y  .R N R L _ ] ",
"K c c b v v c v b c d v c y 5 t v a 8 Y *.#.[ [ [ ..[ X.[ [ [ | { ] D , g Q v v c K C b N R p.=._ K c b j 3 $ X.;.[ [  .[ R ] R I Y ` R P P ",
"C t i u u i u u u i u u u u 7 3 3 0 J [ Q P I I I I R I I I I I P U C 1 6 B u u u u u u t j W W k u y u u 3 @ +.@.I R P R I U C C U U P b c ",
"7 : : : : > : > > > : : : : > > > 6 Y y e e e 7 w e w 5 e e w w w w e $ @ : : : : > > : : > > % > > : > > > + S m w e 5 w w e e e 7 e e e e ",
"u t t i u i 7 7 < $ 7 5 5 e 7 7 < X 2 < < 4 4 2 4 4 2 2 < 4 4 < 1 4 - + > y 7 7 5 e 9 5 7 7 7 7 7 7 7 5 $ @ t : : 1 2 1 4 4 1 2 1 1 $ $ & $ ",
"M.l.p.M.M.M.p.2.D f y.q.q.q.t.0.Y < Q [ ` [ _ Q Q Q ` [ ` Q ! Q ) Q u @ Y M.8.t.u.0.0.9.0.0.t.7.t.9.7.[ i B x.J B ! [ ! Q ) Q Q Q R v v c d ",
"p.$.+.*.&.+. .p f +.9.%. . .X.R e < ` [ | | R m B C ) [ P n N n b b 0 @ Y c. .+.[ +. . .X. . .| X.[ Y j S c.j.y.G A Q m n n n n N n v v v v ",
"8.` ' ' ` ] [ e M q.| [ ] [ [ v + > Q D Q | _ ! Q Q C N v v v d d v 0 @ S s.| [ ] ] ] [ [ [ [ ] ] I p H c.j.f.*.` A z Y n v d d v v v d d v ",
"0.[ ' ' ..] ..E $.6.[ [ [ [ ..v . < E m N C C P ' C b d d v v v d v 0 @ B 9. .[ ] [ [ ] [ [ } ] P p T l.j.>.i.%.[ ~ G l U b v d n c v d v d ",
":.[ %.:.` u 7 Q 3.#.[ [ [ [ B : . , ) m v d v M C v c b v v n v d v 0 @ B q.[ [ [ [ [ ] ]  .] P p 6 Y j.:.7.*.@.[ ..~ F z I m v c C R R N P ",
"j L *.i.[ b u Q $...^ ..' ' G 4 . < ~ I n v v v v v v v v v v v c c 0 @ S q.[ [ [ [ [ [ [ [ G u 8 x [ ,.>.:.[ [ [ [ .._ S A F m v B P P n L ",
"  p ,.2.[ [ | [ [ [ ....' ' } v . < ~ Q P m v v v v v v v v v c c v 0 @ C 0.[ [ [ %.+.[ ` P a J J X.,.;.7.y.+.] [ [ ....[ B A P C v v c C n ",
"2 R 8.[ [ [ [ [ ] ] [ ..' ' ' B # > ~ L R C v v v v v v v v n K P b 8 @ B 0.[ | #.,.*._ L j S z.p.;.:.7.y.c.%.[ [ ^ ..` [ [ A S P b v m _ C ",
"Q p.8...[ [ [ [ [ [ [ ] ..[ ' R e < Q ) b v v v v v M v v d C _ ;.C 8 @ M 9.[ +.t.=.[ P g S y.t.:.6.7.0.c. .[  .[ [ ..[ [ [ [ B B I m m _ C ",
"! 6. .[ [ [ [ [ [ [ ] [ ] ] X.U 7 < Q C v v v v v v v v v v b N v v u @ B 8.[ | t.+.F g S i.p.$.7.;.p.c.[ [ [ [ [ [ [ [ [ [ [ _ G g E C Q C ",
"=. .[ [ [ [ [ [ [ ] [ [ { ] +.U e < ! b v v v v v v v v v c I #.m v 9 @ B q.] | 0.I u J q.f.s...+.k.k. .[ ] [ [ [ ] [  .[ [ [ O.[ G g E C n ",
"%.[ ] ] [ [ [ [ ..[ ] ] ` ] ..P e < Q C v v v v v v v v c v C D v v 9 @ B y.[ [ P t E q.f.t.@.[ ' $.=.] [ [ [ [ [ [ [ [ [ [ [ [ ' _ J g Y C ",
"=.[ } [ [ [ [ [ ] ] ..] ] ....U e < Q b v v v v v d v v u p N c v c 0 @ B y._ D y E 0.g.t.%.[ [ ' ] ` ] [ [ ....X._ [ [ ] [ [ [ ' Q C j j I ",
"&.[ [ | [ [  .[  . ... .[ [  .U e < ) m v c v c b P g t u u p c c c 9 @ B 6.D u E 0.s.9.=.] [ [ ' ' [ [ ' ' ' ......' ' ..' ' ' [ [ ` R F B ",
"[ R U U U U U I U I U U U U U L e ; B j p u i i j S 0 8 0 0 8 u j f 8 @ S &.j / p.g.0.%.[ [ { [ ' ..[ [ ' ....^ ' ' ' ..' ' ' ' *.:.:.X.*.I ",
"j e w e e e e 7 e e e 7 e e e e 1 + % : : > > > : : : > : : : : : > : @ g ^ / M.g.t.%.[ [ [ [ [ [ [ [ [ ' ' ....' ' ' ..' ' ' ' *.3.$...2.$.",
"< 2 1 1 < 2 < 4 2 < < 2 < < < & X $ t 0 t t 0 t 0 t t 0 t 9 t y t 7 5 = @ Z z.l.i.&.] [ ] [ X.[ [ [ [ [ ' ..' ^ ..' ..^ ' ' ' ' ..#.8.$.' E ",
"Q Q ! Q [ Q Q ) Q Q Q Q Q Q ^ M > 7 M.B.M.M.M.M.B.M.M.M.M.M.M.C.v.p.6.p $ 7 z x.&.[ ..[ ] [ ] ^ ' ' ..' ' ' ' ' ' ' ' ' ^ ' ' ' @.*.&.0.` y ",
"P n N C _ C N N b B N b n n m g > 7 M.,.#.&.#.#.%.%.#.+.#.#.2.s.%.@.L 2 y L 5 i E ..[ ..[ [ [ [ ' ' ' ' ..' ..' ' ..' ' ......~ p.c.8._ u 5 ",
"D b c c C Q ) C c c c v v c c u : 5 M.&.[ [ [ [ ^ [ [ ] [ ` =.8.{ [ C < u Q r 5 0 E [ [ [ ] [ ] ' ' ' ' ^ ' ' ' ' ' ' ' ' ' ..' %.&.Q y e ! ",
"D c v v b ! } P v v n v v c m u > 7 M.*.[ ....^ [ [ ] [ [ [ X.$.[ [ K < p Q c y 1 u Y [ [ [ [ [ ' ' ' ' ......' _ q.f.' ' ..' ..[ U y 8 / %.",
"P v d b I P _ P v v v v v v v u : e M.%.[ [ [ | [ [ [ [ =.:.[ ] [ [ K , d Q d c y 4 u G [ [ [ ] [ [ [ [ [ [ [ [ t.k.5.[ [ [ [ ] R t t / *...",
"K d N P I I I b v v v v v v v u : 9 M.=.[ [ [ [ [ [ [ ] *.=.[ ] { [ K , p Q c c v r 4 0 I +.[ [ [ [ [ [ [ [ [ [ 5.5.] ] ] [ ] I t 0 ! >.X.[ ",
"C N I I b ) C c v v v v n c v u : 7 M.&.[ [ [ [ [ [ ] [ [ [ [ ] [ ] C , g Q v v v c 1 @ 0 Y [ [ [ [ [ [ [ [ [ [ [ [ [ ] ] [ P y u W <.[ { ] ",
"D P Y d N _ C d v v v v c c n u : t M.=.#.+.[ [ ^ | [ ] [ ] ] ] [ ] C 1 7 C y v v p 7 7 t 9 Y ` [ ] [ [ [ ] R =.=.'  .] [ R y t ! 2.[ [ [ [ ",
"P P R c v Q K b v v v v n c b u : 9 M.=.2.$.[ [ [ [ | [ ] [ [ [ ] [ C < $ , , p p $ b ` K 5 8 R ] [ [ [ [ _ N c.p.] [ ` R e u / >...@...| _ ",
"_ I b d v n R Z v c v v c c v p : t M.*...[ [ ....[ [ [ [ ] [ [ ]  .C < u I p , $ o M R d d 5 5 G { [ ] [ _ D k.e.] [ R 5 9 O.%.[ $.8.X.+.' ",
"P N c v v v N n v v n v b c v i : e M.=...[ _ X.[ [ [ [ [ [ ] ] ] ] C , p [ Q R Y < B R d d s 5 9 G ] { [ [ _ #. .] I e 0 +.%.[ [ [ %.p.q.$.",
"P v v v v v v v v v v v c v c u : 7 M.$.[ [ [ [ ....X._ ` [ ] ] ] ] D < p Q C N 5 N L N v d v y 4 9 S { | [ [ ] ] P 9 0 %.=.X.[ ] [ ] #.y.$.",
"C v v v v v v v v v v v n c b u : 5 b.=.;.%.[ [ [ [ [ ] [ [ [ ] ] ] K < s Q c v $ F P v v v v v y 9 t Z [ ] [ [ D 9 i O.=.[ [ [ [ [ [ [ =. .",
"P v v v v v v v v v v v v c c i : t B.e.,.#.[ ] [ [ [ [ | [ ] [ ] [ m < p Q v d w y D D v v d v v y 5 9 S [ | C 5 j } :.[ [ [ [ [ +.,.,.[ [ ",
"D v v v v v v v c v v v v c b u > t C.j.=.] [ [ ] [ ] ] =.#.[ ] [ [ L , p Q s v v 4 u D P K v c d v y q 0 S C 9 z } :.[ [ [ [ [ [ $.p.s. .] ",
"D c n c n v v n n c n v n d d p : 5 c.y.#.[ | [ [ ] [ #.5.:.[ [ ] [ C - u Q v v v c 2 7 D P C b b d b s 5 1 3 j | ,.[ [ [  .[ [ [ =.8.q.+.] ",
"N p a s a s p s a a a a a a j u : 1 =.] Q Q _ ! _ Q ! *.O.Q Q ! Q Q C 1 9 Y d k c h w $ X , I v a d p p y 5 3 } +.) ) _ ! ! ! ! ! _ _ ! ! Q ",
"8 8 8 8 8 8 8 8 8 8 8 8 8 8 8 8 : : v b v b v N c N c C b b c b b b d 1 > 8 3 8 8 6 - X X o < 6 8 8 8 8 8 6 5 a N v n v n v N N b c b b b c "
};
